<?xml version="1.0" encoding="utf-8"?>
<!-- Generator: Adobe Illustrator 26.3.1, SVG Export Plug-In . SVG Version: 6.00 Build 0)  -->
<svg version="1.1" id="圖層_1" xmlns="http://www.w3.org/2000/svg" xmlns:xlink="http://www.w3.org/1999/xlink" x="0px" y="0px"
	 viewBox="0 0 64 76" style="enable-background:new 0 0 64 76;" xml:space="preserve">
<style type="text/css">
	.st0{fill:#F2F2F3;}
</style>
<g>
	<g>
		<path class="st0" d="M58.4,28.2C58.4,48.5,32.2,66,32.2,66S6,48.5,6,28.2c0-6.9,2.8-13.6,7.7-18.5C18.6,4.8,25.2,2,32.2,2
			c6.9,0,13.6,2.8,18.5,7.7C55.6,14.6,58.4,21.2,58.4,28.2z"/>
		<path d="M58.4,28.2h1.5l0,0H58.4z M32.2,66l-0.8,1.2c0.5,0.3,1.2,0.3,1.7,0L32.2,66z M6,28.2H4.5l0,0H6z M32.2,2v1.5V2z
			 M56.9,28.2c0,9.6-6.2,18.7-12.7,25.5c-3.2,3.4-6.4,6.2-8.8,8.1c-1.2,1-2.2,1.7-2.9,2.2c-0.3,0.3-0.6,0.4-0.8,0.6
			c-0.1,0.1-0.2,0.1-0.2,0.1c0,0,0,0-0.1,0c0,0,0,0,0,0c0,0,0,0,0,0c0,0,0,0,0,0c0,0,0,0,0.8,1.2c0.8,1.2,0.8,1.2,0.8,1.2
			c0,0,0,0,0,0c0,0,0,0,0,0c0,0,0,0,0,0c0,0,0,0,0.1,0c0.1,0,0.1-0.1,0.2-0.2c0.2-0.1,0.5-0.3,0.9-0.6c0.7-0.5,1.8-1.3,3-2.3
			c2.5-2,5.8-4.9,9.2-8.4c6.6-7,13.5-16.8,13.5-27.6H56.9z M32.2,66c0.8-1.2,0.8-1.2,0.8-1.2c0,0,0,0,0,0c0,0,0,0,0,0c0,0,0,0,0,0
			c0,0,0,0-0.1,0c0,0-0.1-0.1-0.2-0.1c-0.2-0.1-0.5-0.3-0.8-0.6c-0.7-0.5-1.7-1.3-2.9-2.2c-2.4-1.9-5.6-4.7-8.8-8.1
			C13.7,46.8,7.5,37.8,7.5,28.2h-3C4.5,39,11.4,48.8,18,55.8c3.3,3.5,6.7,6.4,9.2,8.4c1.2,1,2.3,1.8,3,2.3c0.4,0.3,0.7,0.5,0.9,0.6
			c0.1,0.1,0.2,0.1,0.2,0.2c0,0,0,0,0.1,0c0,0,0,0,0,0c0,0,0,0,0,0c0,0,0,0,0,0C31.3,67.2,31.3,67.2,32.2,66z M7.5,28.2
			c0-6.5,2.6-12.8,7.2-17.5l-2.1-2.1c-5.2,5.2-8.1,12.2-8.1,19.6H7.5z M14.7,10.7c4.6-4.6,10.9-7.2,17.5-7.2v-3
			c-7.3,0-14.4,2.9-19.6,8.1L14.7,10.7z M32.2,3.5c6.5,0,12.8,2.6,17.5,7.2l2.1-2.1c-5.2-5.2-12.2-8.1-19.6-8.1V3.5z M49.6,10.7
			c4.6,4.6,7.2,10.9,7.2,17.5h3c0-7.3-2.9-14.4-8.1-19.6L49.6,10.7z"/>
	</g>
	<path d="M32.3,44.3c-1.4,0-2.6-0.2-3.9-0.6c-1.2-0.4-2.3-1.1-3.2-2c-0.9-0.9-1.7-2.1-2.2-3.6c-0.5-1.5-0.8-3.3-0.8-5.4
		c0-1.9,0.2-3.6,0.7-5.1c0.5-1.5,1.2-2.8,2.1-3.9c0.9-1.1,2-1.9,3.2-2.4c1.2-0.6,2.6-0.9,4.1-0.9c1.7,0,3.2,0.3,4.5,1
		c1.3,0.7,2.3,1.5,3.1,2.6c0.8,1.1,1.2,2.3,1.4,3.6h-6.2c-0.1-0.7-0.5-1.1-1-1.4c-0.5-0.3-1.1-0.5-1.8-0.5c-1.3,0-2.3,0.6-2.9,1.7
		c-0.6,1.2-0.9,2.7-0.9,4.5h0.1c0.3-0.7,0.7-1.3,1.3-1.8c0.6-0.5,1.3-0.9,2.1-1.2c0.8-0.3,1.6-0.4,2.5-0.4c1.4,0,2.6,0.3,3.7,1
		c1.1,0.6,1.9,1.5,2.5,2.6c0.6,1.1,0.9,2.4,0.9,3.8c0,1.7-0.4,3.1-1.2,4.4c-0.8,1.2-1.9,2.2-3.3,2.9S34.1,44.3,32.3,44.3z
		 M32.2,39.5c0.6,0,1.2-0.1,1.7-0.4c0.5-0.3,0.9-0.7,1.1-1.2c0.3-0.5,0.4-1.1,0.4-1.7c0-0.6-0.1-1.2-0.4-1.7
		c-0.3-0.5-0.7-0.9-1.1-1.2c-0.5-0.3-1-0.4-1.7-0.4c-0.5,0-0.9,0.1-1.3,0.2c-0.4,0.2-0.7,0.4-1,0.7c-0.3,0.3-0.5,0.6-0.7,1.1
		c-0.2,0.4-0.2,0.8-0.2,1.3c0,0.6,0.2,1.2,0.4,1.7c0.3,0.5,0.7,0.9,1.1,1.2C31.1,39.4,31.6,39.5,32.2,39.5z"/>
</g>
</svg>
