<svg id="Layer_2" data-name="Layer 1" xmlns="http://www.w3.org/2000/svg" viewBox="0 0 1359.62 644.04"><defs><style>.cls-1{fill:#e8ecea;}.cls-1,.cls-10,.cls-11,.cls-12,.cls-13,.cls-14,.cls-16,.cls-17,.cls-2,.cls-26,.cls-28,.cls-29,.cls-36,.cls-8,.cls-9{stroke:#000;}.cls-1,.cls-14,.cls-15,.cls-16,.cls-17,.cls-18,.cls-19,.cls-2,.cls-20,.cls-22,.cls-23,.cls-24,.cls-25,.cls-28,.cls-29,.cls-3,.cls-35,.cls-36,.cls-5,.cls-6,.cls-7,.cls-8,.cls-9{stroke-miterlimit:10;}.cls-1,.cls-10,.cls-11,.cls-13,.cls-14,.cls-15,.cls-16,.cls-17,.cls-2,.cls-26,.cls-28,.cls-29,.cls-8,.cls-9{stroke-width:0.5px;}.cls-2{fill:#cecece;}.cls-3,.cls-4,.cls-5{fill:#dbdbdb;}.cls-19,.cls-20,.cls-25,.cls-27,.cls-3,.cls-4,.cls-5,.cls-6{stroke:#fff;}.cls-18,.cls-22,.cls-23,.cls-3,.cls-4,.cls-7{stroke-width:2px;}.cls-26,.cls-4{stroke-linejoin:bevel;}.cls-25,.cls-5,.cls-6{stroke-width:3px;}.cls-18,.cls-20,.cls-22,.cls-23,.cls-24,.cls-25,.cls-27,.cls-29,.cls-6,.cls-7{fill:none;}.cls-7{stroke:#f7f7f7;}.cls-8{fill:#899260;}.cls-11,.cls-26,.cls-9{fill:#f9dcb2;}.cls-10,.cls-14{fill:#c6c6c6;}.cls-10,.cls-11,.cls-12,.cls-13,.cls-18,.cls-19,.cls-20,.cls-23,.cls-25,.cls-27{stroke-linecap:round;}.cls-10,.cls-11,.cls-12,.cls-13,.cls-27{stroke-linejoin:round;}.cls-13,.cls-17{fill:#fcfcfc;}.cls-15,.cls-16{fill:#6f6058;}.cls-15{stroke:#020202;}.cls-18{stroke:#7c7c7c;}.cls-19{fill:#efefef;}.cls-21{fill:#f7f7f7;}.cls-22,.cls-23,.cls-24{stroke:#3f9367;}.cls-28{fill:#9ca7b7;}.cls-30{font-size:12px;font-family:NotoSansTC-Bold-83pv-RKSJ-H, Noto Sans TC;font-weight:700;}.cls-30,.cls-35{fill:#fff;}.cls-31{letter-spacing:-0.03em;}.cls-32{letter-spacing:-0.01em;}.cls-33{letter-spacing:-0.02em;}.cls-34{fill:#a5a5a5;}.cls-35{stroke:#0a0a0a;}.cls-35,.cls-36{stroke-width:0.25px;}.cls-36{fill:#f4f4f4;}.cls-37{letter-spacing:-0.02em;}.cls-38{letter-spacing:-0.01em;}</style></defs><title>park2-b1</title><path class="cls-1" d="M146.29,238.08l204.88,2.51s106.7,3.6,174.69-19.37c49.33-16.67,78.13-25,78.13-25s23.17-4.41,86-10.9c0,0,192.87-3.6,304.49,4.05,0,0,3.06,76.48-28.2,112.12-41.33,47.12-137.53,120.23-292.47,141.3-189.24,25.74-414.25-13.2-455.52-30.6-27.28-11.5-119.83-42.71-86.5-141.07C131.75,271.08,139.49,252,146.29,238.08Z"/><path class="cls-2" d="M19.05,250.13l50.72,1.05s-5.42,14.6-5.42,47.1c0,11,8.91,39.69,13.33,51.17,0,0,5.77,19.14,12.94,32.12C98,394.88,109,411.74,109,411.74L52.36,462.9l.93,20.9s34.63,29.45,101,60c81.23,37.4,196.82,97.65,462.88,97.65,274.18,0,466.42-83.3,570.42-158.85,44.33-32.2,56.33-53.87,56.33-53.87s16.84-19.27,17.92-89.1c.41-26.15-1.67-83.9-1.67-83.9h80.21V244l-81.57-.63s7.77,73.64-5.51,131.7c-8.87,38.82-42.73,73.27-98.62,110.32C1050,554.82,845.68,623.23,592,628.09c-119.09,2.29-248.23-24.87-332.78-54.42C118.16,524.37,52.36,462.9,52.36,462.9l54.41-53S92.2,394.54,74.11,343.8C52.68,283.7,76.66,237,76.66,237L19.05,237Z"/><path class="cls-2" d="M1340.62,244,1119.22,10.92H223L19.55,237.48s6.63.4,57.61.06c-17,30.24-22,70-18.3,92.14,9.49,56.35,43.07,85.93,43.07,85.93L52.86,463.4S372.19,748.83,978.19,569.31c72.6-21.5,129.19-50.38,201-100.56,53.46-37.35,70.69-69.53,78.81-110.59,5.66-28.64,3.71-81.36,1.28-114.28ZM903,352.52c-99.51,81.74-251.3,87.55-415.53,87.55-22.8,0-346.72,9.4-359-124.35C125.66,284.41,141.78,259,150.07,239c113.44,2,266.31,3.51,266.31,3.51s58.48,0,109.7-15.41a352.21,352.21,0,0,1,72.8-24.55c32.69-7,64.37-11.77,117.36-13.36,0,0,23.76-1.69,71.34-1.95,5.39,0,42.11-.11,47.95,0,27.92.59,102.4.1,138.8,1.38C979.33,251.11,950.57,313.48,903,352.52Z"/><polygon class="cls-2" points="277.22 203.44 193.35 203.44 240.37 140.47 320.82 140.47 277.22 203.44"/><rect class="cls-3" x="239.85" y="106.1" width="80.34" height="34.88"/><polygon class="cls-4" points="239.94 140.56 186.86 211.81 187.26 173.15 239.94 105.69 239.94 140.56"/><polygon class="cls-4" points="320.57 140.56 271.49 211.81 271.89 173.15 320.57 105.69 320.57 140.56"/><polygon class="cls-5" points="150.21 174.56 149.23 238.06 289.56 240.25 291.64 175.58 150.21 174.56"/><polygon class="cls-6" points="174.8 244.28 136.93 313.01 225.48 315.01 258.61 245.84 174.8 244.28"/><polygon class="cls-7" points="234.63 207.09 201.84 207.01 202.46 185.28 235.03 185.34 234.63 207.09"/><polygon class="cls-7" points="224.99 200.6 211.71 200.57 211.96 191.77 225.15 191.79 224.99 200.6"/><path class="cls-8" d="M527.67,297.22s-2.37.83-2.14,4.92l-1-6.41s-2.43-.2-2.85,4.49c0,0-2-6.41.31-9.09,0,0-2.83-.67-4.37,1.45,0,0,0-4.27,2.57-5s-.87-7.47-.87-7.47,3.71,2.06,5,4.84a4.37,4.37,0,0,0,2-5.09s2.46,5.45,1.62,7.14c0,0,4.65-.37,7.11,3.34,0,0-3.21-2-4.36,1,0,0,2.62,3.56,4.49,3.06,0,0-2.31,1.85-4.77,1.05a21.17,21.17,0,0,1,1.93,7.28S530.09,298.67,527.67,297.22Z"/><polygon class="cls-9" points="535.71 368.11 578.33 395.88 615.91 377.15 574.98 351.33 535.71 368.11"/><polygon class="cls-9" points="577.67 402.01 615.37 383.37 615.91 377.15 578.33 395.88 577.67 402.01"/><polygon class="cls-9" points="536.05 374.24 577.48 402.12 578.33 395.88 535.71 368.11 536.05 374.24"/><polygon class="cls-9" points="456.04 352.12 405.64 360.12 382.64 330.72 432.04 323.72 456.04 352.12"/><polygon class="cls-9" points="405.26 365.48 382.64 336.76 382.64 330.72 405.64 360.12 405.26 365.48"/><polygon class="cls-9" points="455.66 357.48 405.4 365.65 405.64 360.12 456.04 352.12 455.66 357.48"/><path class="cls-10" d="M580.49,324.88a2.75,2.75,0,0,1,.68-1.57c1.67-2.07,5.13-2.68,8.66-2.55,3,.11,5.89.65,8.07,2.74a2.39,2.39,0,0,1,.74,1.83l-.72,16.4a2.07,2.07,0,0,1-.91,1.76c-2.63,2-4.57,2.15-8.13,2.06a11.32,11.32,0,0,1-8.08-3,2.67,2.67,0,0,1-.93-2Z"/><path class="cls-11" d="M601.77,323.34c.06,2.85-5.55,5.15-12.4,5.15S577,326.19,577,323.34s5.56-5.15,12.41-5.15S601.74,321.33,601.77,323.34Z"/><path class="cls-11" d="M577,323.75v3.06s3.82,3.7,13,3.69c9.76-.38,11.66-3.38,11.66-3.38l.16-2.73s-3.57,3.84-12,3.82C583,328.19,578.69,326.71,577,323.75Z"/><rect class="cls-12" x="589.3" y="304.57" width="1.11" height="19.05"/><polygon class="cls-13" points="589.81 293.44 602.51 296.82 604.99 306.43 589.81 311.08 572.14 307.98 574.78 297.64 589.81 293.44"/><line class="cls-13" x1="589.47" y1="296.74" x2="589.81" y2="293.6"/><line class="cls-13" x1="589.47" y1="296.74" x2="602.51" y2="296.99"/><line class="cls-13" x1="589.47" y1="296.74" x2="589.81" y2="311.25"/><line class="cls-13" x1="589.47" y1="296.74" x2="574.78" y2="297.8"/><line class="cls-13" x1="589.47" y1="296.76" x2="572.14" y2="308.15"/><line class="cls-13" x1="589.47" y1="296.74" x2="604.73" y2="306.44"/><path class="cls-14" d="M449,312.05a3,3,0,0,1,.69-1.55c1.76-2.46,5.83-4.86,14.35-4.52,7.35.3,11.13,3,12.62,4.47a2.41,2.41,0,0,1,.73,1.83l-.72,16.87a2.37,2.37,0,0,1-.93,1.77c-1.44,1.09-4.21,3.24-12.5,3.19-7.53-.05-12.34-2.7-14-4a2.34,2.34,0,0,1-.91-2Z"/><path class="cls-15" d="M452,312c.16-1,3.83-3.79,10.81-3.78s11.19,3.2,11.19,4.65c0,2.13-5.25,4-11.53,3.75C456.93,316.41,451.83,313.32,452,312Z"/><path class="cls-16" d="M459.22,313.43c2.86.73,11.28,1,11.24-1.9,0-4.21-4-1.86-1.93-10.75,1.44-6.17,2.68-15.79,6.75-24.25,3.21-6.67,2.71-4.65-.72-2.77-2.34,1.29-3,4.5-3,4.5a35.52,35.52,0,0,1-1.84,6.44c-1.88,4.8-4.55,13.61-4.55,13.61s-2.8-23.75.3-30.44-4.06-.83-4.75,2.81,0,15.56.39,21.29c.32,5,2.35,12.85-1,15C457.63,308.6,453.63,312,459.22,313.43Z"/><path class="cls-8" d="M462.75,276.19s4.24-.51,7.16,4.45l-3.65-8.18s3.5-1.75,7.88,3.51c0,0-2.2-8.76-7.75-10.51,0,0,3.73-2.56,7.75-1,0,0-3.43-5-7.88-4.31s-4.67-9.34-4.67-9.34-3.95,4.74-3.65,8.83c0,0-5.92-.07-7.08-4.74,0,0,.65,7.95,3.28,9.41,0,0-7.3,2.48-8,8.39,0,0,3.21-4.38,7.37-1.53,0,0-1.09,5.84-4.3,6.42,0,0,5,.73,8-1.75,0,0,.29,5.69,2.92,9.78C460.13,285.6,460.27,279.4,462.75,276.19Z"/><path class="cls-8" d="M475.36,289.8s4.23-.51,7.15,4.45l-3.65-8.17s3.5-1.76,7.88,3.5c0,0-2.2-8.76-7.75-10.51,0,0,3.74-2.55,7.75-1,0,0-3.43-5-7.88-4.31s-4.67-9.34-4.67-9.34-3.94,4.74-3.65,8.83c0,0-5.91-.07-7.08-4.74,0,0,.66,7.95,3.29,9.41,0,0-7.3,2.48-8,8.4,0,0,3.21-4.38,7.37-1.54,0,0-1.1,5.84-4.31,6.43,0,0,5,.72,8-1.76,0,0,.29,5.7,2.92,9.78C472.73,299.21,472.88,293,475.36,289.8Z"/><path class="cls-14" d="M500.56,234.67a2.37,2.37,0,0,1,.52-1.18c1.33-1.86,4.41-3.67,10.84-3.41,5.55.22,8.41,2.3,9.54,3.38a1.82,1.82,0,0,1,.55,1.38l-.54,12.75a1.8,1.8,0,0,1-.7,1.34c-1.09.82-3.19,2.44-9.45,2.4-5.69,0-9.33-2-10.6-3a1.76,1.76,0,0,1-.69-1.51Z"/><path class="cls-15" d="M502.84,234.64c.11-.76,2.89-2.87,8.16-2.86s8.45,2.42,8.45,3.52c0,1.6-4,3-8.7,2.83C506.54,238,502.68,235.63,502.84,234.64Z"/><path class="cls-16" d="M508.26,235.71c2.17.55,8.53.76,8.5-1.43,0-3.19-3-1.41-1.46-8.13,1.09-4.66,2-11.93,5.1-18.32,2.43-5,2.05-3.52-.54-2.1a5.64,5.64,0,0,0-2.29,3.4,27.58,27.58,0,0,1-1.38,4.87c-1.42,3.62-3.44,10.29-3.44,10.29s-2.12-17.95.23-23-3.07-.63-3.59,2.12,0,11.77.29,16.1c.24,3.77,1.78,9.71-.73,11.33C507.06,232.06,504,234.62,508.26,235.71Z"/><path class="cls-8" d="M510.94,207.57s3.19-.39,5.4,3.36l-2.76-6.17s2.65-1.33,6,2.64c0,0-1.67-6.62-5.86-7.94a6.92,6.92,0,0,1,5.86-.77s-2.59-3.81-6-3.25-3.53-7.06-3.53-7.06-3,3.58-2.75,6.67c0,0-4.47-.06-5.35-3.58,0,0,.49,6,2.48,7.11,0,0-5.52,1.87-6.07,6.34,0,0,2.43-3.31,5.57-1.16,0,0-.82,4.41-3.25,4.86,0,0,3.75.55,6.06-1.33a17.54,17.54,0,0,0,2.21,7.39S509.06,210,510.94,207.57Z"/><path class="cls-8" d="M520.46,217.85s3.2-.38,5.4,3.37L523.11,215s2.64-1.32,5.95,2.65c0,0-1.66-6.62-5.85-7.94a6.89,6.89,0,0,1,5.85-.77s-2.59-3.81-5.95-3.26-3.53-7.06-3.53-7.06-3,3.59-2.76,6.68c0,0-4.47-.06-5.35-3.59,0,0,.5,6,2.48,7.11,0,0-5.51,1.88-6.06,6.35,0,0,2.42-3.31,5.57-1.16,0,0-.83,4.41-3.26,4.85,0,0,3.75.55,6.07-1.32a17.37,17.37,0,0,0,2.21,7.39S518.59,220.28,520.46,217.85Z"/><path class="cls-14" d="M510.37,317.57a3,3,0,0,1,.68-1.56c1.76-2.46,5.84-4.86,14.35-4.51,7.35.29,11.13,3,12.62,4.47a2.38,2.38,0,0,1,.73,1.83L538,334.67a2.39,2.39,0,0,1-.92,1.77c-1.45,1.09-4.22,3.23-12.51,3.19-7.52-.05-12.34-2.7-14-4a2.33,2.33,0,0,1-.92-2Z"/><path class="cls-15" d="M513.37,317.53c.16-1,3.84-3.79,10.81-3.78s11.19,3.19,11.19,4.65c0,2.13-5.25,4-11.53,3.75C518.27,321.93,513.17,318.84,513.37,317.53Z"/><path class="cls-16" d="M520.56,319c2.86.73,11.28,1,11.24-1.9,0-4.21-4-1.86-1.93-10.75,1.44-6.17,2.68-15.79,6.75-24.25,3.21-6.67,2.71-4.65-.71-2.77-2.35,1.29-3,4.5-3,4.5a35.52,35.52,0,0,1-1.84,6.44c-1.87,4.79-4.55,13.61-4.55,13.61s-2.8-23.75.3-30.44-4.06-.83-4.75,2.81,0,15.56.39,21.29c.32,5,2.35,12.85-1,15C519,314.12,515,317.51,520.56,319Z"/><path class="cls-8" d="M524.09,281.7s4.24-.51,7.16,4.46L527.6,278s3.5-1.75,7.88,3.51c0,0-2.2-8.76-7.75-10.51,0,0,3.74-2.56,7.75-1,0,0-3.43-5-7.88-4.3s-4.67-9.34-4.67-9.34-3.94,4.74-3.65,8.83c0,0-5.91-.07-7.08-4.75,0,0,.66,8,3.28,9.42,0,0-7.3,2.48-8,8.39,0,0,3.22-4.38,7.38-1.53,0,0-1.1,5.84-4.31,6.42,0,0,5,.73,8-1.75,0,0,.29,5.69,2.92,9.78C521.47,291.12,521.61,284.92,524.09,281.7Z"/><path class="cls-8" d="M536.7,295.32s4.23-.51,7.15,4.45l-3.65-8.17s3.51-1.76,7.88,3.5c0,0-2.2-8.76-7.75-10.51,0,0,3.74-2.56,7.75-1,0,0-3.43-5-7.88-4.31s-4.67-9.34-4.67-9.34-3.94,4.74-3.65,8.83c0,0-5.91-.07-7.08-4.74,0,0,.66,7.95,3.29,9.41,0,0-7.3,2.48-8,8.39,0,0,3.21-4.37,7.37-1.53,0,0-1.09,5.84-4.31,6.42,0,0,5,.73,8-1.75,0,0,.29,5.7,2.92,9.78C534.07,304.73,534.22,298.53,536.7,295.32Z"/><path class="cls-14" d="M505.86,345.31a3,3,0,0,1,.69-1.56c1.76-2.46,5.83-4.86,14.35-4.52,7.35.3,11.13,3,12.62,4.47a2.39,2.39,0,0,1,.72,1.84l-.71,16.86a2.37,2.37,0,0,1-.93,1.77c-1.44,1.09-4.21,3.24-12.5,3.19-7.53,0-12.34-2.69-14-4a2.34,2.34,0,0,1-.92-2Z"/><path class="cls-15" d="M508.87,345.26c.16-1,3.83-3.79,10.81-3.78s11.19,3.2,11.19,4.66c0,2.12-5.25,4-11.53,3.75C513.77,349.67,508.67,346.58,508.87,345.26Z"/><path class="cls-16" d="M516.05,346.68c2.87.73,11.29,1,11.25-1.89,0-4.22-4-1.87-1.94-10.75,1.45-6.18,2.68-15.8,6.76-24.26,3.21-6.66,2.7-4.65-.72-2.77-2.34,1.29-3,4.5-3,4.5a36,36,0,0,1-1.83,6.44c-1.88,4.8-4.55,13.61-4.55,13.61s-2.8-23.75.3-30.44-4.06-.83-4.75,2.81,0,15.56.39,21.29c.32,5,2.35,12.86-1,15C514.46,341.86,510.47,345.25,516.05,346.68Z"/><path class="cls-8" d="M519.59,309.44s4.23-.51,7.15,4.45l-3.64-8.17s3.5-1.75,7.88,3.5c0,0-2.21-8.76-7.75-10.51,0,0,3.73-2.55,7.75-1,0,0-3.43-5-7.88-4.31s-4.68-9.34-4.68-9.34-3.94,4.74-3.64,8.83c0,0-5.92-.07-7.08-4.74,0,0,.65,7.95,3.28,9.41,0,0-7.3,2.48-8,8.4,0,0,3.21-4.38,7.37-1.54,0,0-1.09,5.84-4.3,6.43,0,0,5,.73,8-1.76,0,0,.29,5.7,2.91,9.78C517,318.85,517.11,312.65,519.59,309.44Z"/><path class="cls-8" d="M532.2,323.05s4.23-.51,7.15,4.45l-3.65-8.17s3.5-1.75,7.88,3.5c0,0-2.2-8.76-7.75-10.51,0,0,3.74-2.55,7.75-1,0,0-3.43-5-7.88-4.3s-4.67-9.35-4.67-9.35-3.94,4.75-3.65,8.83c0,0-5.91-.07-7.08-4.74,0,0,.66,8,3.28,9.42,0,0-7.29,2.48-8,8.39,0,0,3.21-4.38,7.37-1.53,0,0-1.1,5.83-4.31,6.42,0,0,5,.73,8-1.75,0,0,.29,5.69,2.92,9.78C529.57,332.47,529.72,326.26,532.2,323.05Z"/><path class="cls-14" d="M477.48,332a3.19,3.19,0,0,1,.75-1.7c1.92-2.68,6.36-5.3,15.64-4.92,8,.32,12.13,3.31,13.76,4.87a2.59,2.59,0,0,1,.79,2l-.78,18.39a2.58,2.58,0,0,1-1,1.93c-1.57,1.19-4.59,3.53-13.63,3.48-8.21-.05-13.46-2.94-15.29-4.32a2.57,2.57,0,0,1-1-2.18Z"/><path class="cls-15" d="M481.11,331.91c.18-1.11,4.25-4.2,12-4.19s12.41,3.54,12.41,5.16c0,2.36-5.82,4.44-12.78,4.16C486.54,336.79,480.88,333.37,481.11,331.91Z"/><path class="cls-16" d="M499.62,333.58c-2.84,1.06-9.87,1.22-12.81-.12-5.19-2.35,4.8-3.38,2.58-14.23-1.15-5.61-1.88-3.73-4.78-11.7-3.39-9.27-1.26-11.09.58-8.08a29.88,29.88,0,0,1,1.75,5.34,36.06,36.06,0,0,1,2.64,5.39c.34.87.32-24.29-.35-30.93-.82-8.21-3.12-23.32-1.89-24.65,2.7-2.92,6.16,26.31,6.16,32,0,6.26.2,32.35.2,32.35s5.54-15.05,6.9-24.81c1.25-8.9.26-27.95,3.17-29.29,4-1.83,2,32.46-2,41.12-1.35,2.87-1.95,8-3,13.8-.85,4.8-1.08,6.16-.75,7.69C498.78,330.85,502.94,332.36,499.62,333.58Z"/><path class="cls-8" d="M501.43,276.52s-1.34-.15-7.44,5.94l4.08-13.27s-4.34-3-11.07,3.39c0,0,4.46-11.49,12.12-12.91,0,0-4.5-4.11-10.1-2.72,0,0,5.44-6.23,11.21-4.48s7.84-11.86,7.84-11.86,4.4,7.11,3.29,12.6c0,0,7.85.91,10.22-5.22,0,0-2.26,10.67-6,12.2,0,0,9.25,4.62,9.18,12.76,0,0-4.41-5.52-10.43-2.38,0,0,4.2,9.38,8.35,10.73,0,0-8.67,1.18-12.3-2.71a25.43,25.43,0,0,1-8.94,9.46S504.16,281.3,501.43,276.52Z"/><path class="cls-8" d="M483,265s-5-.78-8.49,6.75l4.33-12.39s-4.15-2.66-9.35,5.31c0,0,2.61-13.28,9.2-15.93,0,0-4.44-3.88-9.2-1.55,0,0,4.07-7.64,9.35-6.53s5.55-14.16,5.55-14.16,4.67,7.19,4.33,13.39c0,0,7-.11,8.4-7.19,0,0-.78,12-3.9,14.27,0,0,8.66,3.76,9.53,12.72,0,0-3.81-6.64-8.75-2.32,0,0,1.3,8.85,5.11,9.73,0,0-5.89,1.11-9.53-2.65,0,0-.34,8.62-3.46,14.82C486.11,279.25,485.93,269.85,483,265Z"/><path class="cls-14" d="M467.14,345.29a3,3,0,0,1,.69-1.56c1.76-2.46,5.83-4.86,14.34-4.51,7.35.29,11.13,3,12.62,4.47a2.34,2.34,0,0,1,.73,1.83l-.72,16.87a2.33,2.33,0,0,1-.92,1.77c-1.44,1.09-4.22,3.23-12.5,3.19-7.53-.05-12.35-2.7-14-4a2.35,2.35,0,0,1-.92-2Z"/><path class="cls-15" d="M470.15,345.25c.16-1,3.83-3.79,10.8-3.78s11.19,3.19,11.19,4.65c0,2.13-5.25,4-11.52,3.75C475.05,349.65,469.94,346.56,470.15,345.25Z"/><path class="cls-16" d="M477.33,346.66c2.86.74,11.29,1,11.25-1.89-.06-4.21-4-1.86-1.94-10.75,1.45-6.17,2.68-15.79,6.75-24.25,3.21-6.67,2.71-4.65-.71-2.77-2.35,1.29-3,4.5-3,4.5a36,36,0,0,1-1.83,6.44c-1.88,4.79-4.55,13.61-4.55,13.61s-2.8-23.75.3-30.44-4.06-.83-4.75,2.8,0,15.57.38,21.3c.32,5,2.36,12.85-1,15C475.74,341.84,471.75,345.23,477.33,346.66Z"/><path class="cls-8" d="M480.87,309.42s4.23-.51,7.15,4.46l-3.65-8.18s3.51-1.75,7.88,3.51c0,0-2.2-8.76-7.74-10.51,0,0,3.73-2.56,7.74-1,0,0-3.43-5-7.88-4.3S479.7,284,479.7,284s-3.94,4.74-3.65,8.83c0,0-5.91-.08-7.08-4.75,0,0,.66,8,3.29,9.42,0,0-7.3,2.48-8,8.39,0,0,3.21-4.38,7.37-1.53,0,0-1.09,5.84-4.31,6.42,0,0,5,.73,8-1.75,0,0,.29,5.69,2.92,9.78C478.24,318.84,478.39,312.64,480.87,309.42Z"/><path class="cls-8" d="M493.47,323s4.24-.51,7.16,4.45L497,319.32s3.5-1.76,7.88,3.5c0,0-2.2-8.76-7.75-10.51,0,0,3.74-2.56,7.75-1,0,0-3.43-5-7.88-4.31s-4.67-9.34-4.67-9.34-3.94,4.74-3.65,8.83c0,0-5.91-.07-7.08-4.74,0,0,.65,7.95,3.28,9.41,0,0-7.3,2.48-8,8.39,0,0,3.22-4.37,7.38-1.53,0,0-1.1,5.84-4.31,6.42,0,0,5,.73,8-1.75,0,0,.29,5.69,2.92,9.78C490.85,332.45,491,326.25,493.47,323Z"/><path class="cls-14" d="M479.63,384.63a3.16,3.16,0,0,1,.8-1.85c2-2.45,6.07-3.16,10.23-3,3.57.12,7,.77,9.53,3.24a2.78,2.78,0,0,1,.87,2.16l-.84,19.36a2.47,2.47,0,0,1-1.08,2.08c-3.11,2.41-5.4,2.55-9.6,2.44-3.91-.1-7-1.08-9.54-3.55a3.09,3.09,0,0,1-1.1-2.36Z"/><path class="cls-9" d="M504.77,382.81c.06,3.37-6.56,6.09-14.65,6.09s-14.66-2.72-14.66-6.09,6.56-6.08,14.66-6.08S504.72,380.44,504.77,382.81Z"/><path class="cls-9" d="M475.46,383.3v3.61s4.52,4.37,15.31,4.36c11.53-.44,13.77-4,13.77-4l.18-3.22s-4.21,4.53-14.1,4.5Q478.54,388.53,475.46,383.3Z"/><rect class="cls-12" x="490.03" y="360.65" width="1.31" height="22.5"/><polygon class="cls-17" points="490.63 347.5 505.64 351.5 508.57 362.85 490.63 368.34 469.77 364.68 472.89 352.46 490.63 347.5"/><line class="cls-17" x1="490.24" y1="351.4" x2="490.63" y2="347.69"/><line class="cls-17" x1="490.24" y1="351.4" x2="505.64" y2="351.69"/><line class="cls-17" x1="490.24" y1="351.4" x2="490.63" y2="368.53"/><line class="cls-17" x1="490.24" y1="351.4" x2="472.89" y2="352.65"/><line class="cls-17" x1="490.24" y1="351.42" x2="469.77" y2="364.87"/><line class="cls-17" x1="490.24" y1="351.4" x2="508.26" y2="362.86"/><line class="cls-18" x1="549.72" y1="226.52" x2="550.15" y2="192.01"/><line class="cls-18" x1="594.47" y1="223.3" x2="594.47" y2="192.54"/><line class="cls-18" x1="641.14" y1="223.3" x2="641.14" y2="192.54"/><line class="cls-18" x1="689.95" y1="223.3" x2="689.95" y2="192.54"/><polygon class="cls-9" points="740.73 215.01 740.64 223.45 733.42 241.19 708.54 240.87 699.46 259.74 672.27 259.6 661.44 282.67 576.34 281.14 576.43 277.79 582.66 259.5 551.64 259.12 551.93 255.62 560.41 237.42 538.75 236.89 538.96 233.45 549.5 211.16 740.73 215.01"/><line class="cls-18" x1="581.97" y1="263.75" x2="582.69" y2="241.29"/><line class="cls-18" x1="560.24" y1="239.34" x2="561.25" y2="213.41"/><path class="cls-9" d="M740.73,213l-8.29,24.75-24.65-.23-9.28,18.86H671.09L660.4,279.17l-83.63-1.47L583.6,256l-31.67-.38,9.82-21.07-22.68-.6,10.44-22.79S599.65,210.43,740.73,213Z"/><line class="cls-18" x1="575.42" y1="285.79" x2="576.19" y2="254.93"/><line class="cls-18" x1="582.21" y1="256.31" x2="582.89" y2="235.24"/><line class="cls-18" x1="551.35" y1="262.87" x2="552.13" y2="234.65"/><line class="cls-18" x1="539.31" y1="241.44" x2="540.06" y2="214.33"/><line class="cls-18" x1="660.73" y1="256.66" x2="660.87" y2="287.7"/><line class="cls-18" x1="671.65" y1="265.39" x2="671.65" y2="235.29"/><line class="cls-18" x1="698.46" y1="265" x2="698.46" y2="234.68"/><line class="cls-18" x1="708.57" y1="245.91" x2="708.84" y2="215.63"/><line class="cls-18" x1="731.74" y1="245.91" x2="732.07" y2="215.06"/><line class="cls-18" x1="740.83" y1="232.12" x2="741.26" y2="192.61"/><polygon class="cls-19" points="622.45 240.3 645.23 240.09 660.29 249.66 653.68 263.83 629.98 273.86 605.71 273.86 594.02 263.38 600.29 248.64 622.45 240.3"/><polygon class="cls-20" points="632.35 258.47 610.92 258.47 615.85 247.52 637.73 247.52 632.35 258.47"/><line class="cls-20" x1="610.92" y1="258.47" x2="605.71" y2="273.86"/><line class="cls-20" x1="632.35" y1="258.47" x2="630.15" y2="273.12"/><line class="cls-20" x1="637.95" y1="247.66" x2="660.29" y2="249.66"/><line class="cls-20" x1="632.35" y1="258.47" x2="653.68" y2="263.83"/><line class="cls-20" x1="637.72" y1="247.52" x2="644.55" y2="240.79"/><line class="cls-20" x1="615.84" y1="247.88" x2="621.53" y2="240.66"/><line class="cls-20" x1="610.92" y1="258.47" x2="594.02" y2="263.39"/><line class="cls-20" x1="615.85" y1="247.52" x2="600.29" y2="248.64"/><polygon class="cls-18" points="576.71 262.42 660.98 263.42 672.16 242.19 698.4 241.87 708.57 221.05 732.08 221.24 740.65 196.78 550.2 195.61 540.39 218.36 560.83 218.66 552.5 240.51 582.54 240.83 576.71 262.42"/><line class="cls-18" x1="560.42" y1="234.75" x2="561.25" y2="214.41"/><line class="cls-18" x1="601.84" y1="286.25" x2="601.84" y2="255.49"/><line class="cls-18" x1="632.88" y1="287.16" x2="633.11" y2="257.49"/><polygon class="cls-19" points="638.27 229.45 620.12 237.41 606.75 228.96 625.39 221.24 638.27 229.45"/><polygon class="cls-19" points="655.21 222.92 638.27 229.45 625.39 221.24 641.65 214.66 655.21 222.92"/><polygon class="cls-19" points="670.09 231.93 652.47 238.94 638.41 229.56 655.21 222.92 670.09 231.93"/><polyline class="cls-20" points="638.27 229.45 653.62 228.34 670.09 231.93"/><polyline class="cls-20" points="607.33 229.32 622.78 226.99 637.88 229.46"/><polyline class="cls-20" points="626.35 221.73 639.36 219.64 654.68 222.92"/><polyline class="cls-20" points="620.15 237.05 622.78 226.99 625.46 222.02"/><polyline class="cls-20" points="638.36 229.46 639.36 219.64 641.79 215.09"/><polyline class="cls-20" points="652.84 238.51 653.62 228.34 655.39 223.02"/><path class="cls-21" d="M212.2,203.92l2.2,9.16a.65.65,0,0,0,.63.5l6.3.07a.67.67,0,0,0,.65-.49l2.31-9.11a.65.65,0,0,0-.89-.76,13.54,13.54,0,0,1-10.32-.13A.66.66,0,0,0,212.2,203.92Z"/><line class="cls-22" x1="155.7" y1="313.41" x2="176.11" y2="331.19"/><line class="cls-22" x1="161.26" y1="306.18" x2="187.97" y2="330.5"/><line class="cls-22" x1="167.78" y1="301.07" x2="198.27" y2="328.09"/><line class="cls-22" x1="176.82" y1="298.59" x2="205.5" y2="323.57"/><line class="cls-22" x1="187.77" y1="297.8" x2="209.73" y2="316.93"/><line class="cls-23" x1="194.16" y1="250.4" x2="214.11" y2="267.78"/><line class="cls-23" x1="204.2" y1="249.66" x2="222.59" y2="265.68"/><line class="cls-23" x1="215.55" y1="250.22" x2="229.35" y2="262.24"/><line class="cls-23" x1="225.7" y1="250.35" x2="234.1" y2="257.67"/><path class="cls-24" d="M224.65,202.65c0,.72-2.85,1.3-6.38,1.3a16.63,16.63,0,0,1-5.87-.79c-.33-.16-.5-.33-.5-.51,0-.72,2.85-1.3,6.37-1.3S224.65,201.93,224.65,202.65Z"/><path class="cls-25" d="M189.43,249.78s-3.35,9.72,4.75,14.13c11.6,6.29,36.88,6.12,44.75-12.82"/><path class="cls-6" d="M211,314c-2.7,10.53-13.33,17.74-34.16,16.91-19.67-.79-22.63-11.21-21.15-17.5,1.85-7.94,13.65-16.22,30.85-16.22C204.93,297.19,213.15,305.64,211,314Z"/><line class="cls-18" x1="295.98" y1="261.71" x2="296.71" y2="235.29"/><line class="cls-18" x1="276.59" y1="262.19" x2="277.07" y2="235.41"/><polygon class="cls-9" points="288.83 272.53 268.59 272.53 277.13 249.62 296.33 249.62 288.83 272.53"/><polygon class="cls-26" points="268.59 272.53 268.59 275.48 289.87 275.58 296.06 257.13 296.33 249.62 288.83 272.53 268.59 272.53"/><line class="cls-18" x1="289.29" y1="281.4" x2="290" y2="253.51"/><line class="cls-18" x1="268.86" y1="280.84" x2="269.38" y2="253.01"/><polygon class="cls-9" points="281.47 294.06 260.38 294.06 269.28 270.19 289.29 270.19 281.47 294.06"/><polygon class="cls-26" points="260.38 294.06 260.38 297.14 282.56 297.24 289.01 278.02 289.29 270.19 281.47 294.06 260.38 294.06"/><line class="cls-18" x1="282.11" y1="303.46" x2="282.93" y2="273.63"/><line class="cls-18" x1="261.05" y1="302.91" x2="261.32" y2="273.16"/><polygon class="cls-9" points="274.84 316.55 252.2 316.11 260.95 291.75 282.06 291.94 274.84 316.55"/><polygon class="cls-26" points="252.2 316.11 252.2 319.3 275.63 319.85 281.82 299.89 282.06 291.94 274.84 316.55 252.2 316.11"/><line class="cls-18" x1="252.2" y1="322.82" x2="252.2" y2="297.24"/><line class="cls-18" x1="274.84" y1="323.2" x2="275.19" y2="298.45"/><polygon class="cls-18" points="275.51 304.15 252.28 303.96 276.83 240.01 296.33 240.01 275.51 304.15"/><path class="cls-14" d="M293.66,345.53a3.16,3.16,0,0,1,.8-1.85c2-2.45,6.07-3.16,10.23-3,3.57.12,7,.77,9.53,3.24a2.78,2.78,0,0,1,.87,2.16l-.84,19.36a2.49,2.49,0,0,1-1.08,2.08c-3.11,2.41-5.4,2.55-9.6,2.44-3.91-.1-6.95-1.08-9.54-3.55a3.09,3.09,0,0,1-1.1-2.36Z"/><path class="cls-9" d="M318.8,343.71c.06,3.37-6.56,6.09-14.65,6.09s-14.66-2.72-14.66-6.09,6.56-6.08,14.66-6.08S318.75,341.34,318.8,343.71Z"/><path class="cls-9" d="M289.49,344.2v3.61s4.51,4.37,15.31,4.36c11.53-.44,13.77-4,13.77-4l.18-3.22s-4.21,4.53-14.1,4.5Q292.58,349.43,289.49,344.2Z"/><rect class="cls-12" x="303.06" y="321.55" width="1.31" height="22.5"/><polygon class="cls-17" points="304.66 308.4 319.67 312.4 322.6 323.75 304.66 329.24 283.8 325.58 286.92 313.36 304.66 308.4"/><line class="cls-17" x1="304.27" y1="312.3" x2="304.66" y2="308.59"/><line class="cls-17" x1="304.27" y1="312.3" x2="319.67" y2="312.59"/><line class="cls-17" x1="304.27" y1="312.3" x2="304.66" y2="329.43"/><line class="cls-17" x1="304.27" y1="312.3" x2="286.92" y2="313.55"/><line class="cls-17" x1="304.27" y1="312.32" x2="283.8" y2="325.77"/><line class="cls-17" x1="304.27" y1="312.3" x2="322.29" y2="323.76"/><path class="cls-14" d="M251.56,369.76a2.11,2.11,0,0,1,.47-1.07c1.22-1.7,4-3.35,9.9-3.12,5.07.21,7.68,2.1,8.7,3.09a1.63,1.63,0,0,1,.51,1.26l-.5,11.64a1.6,1.6,0,0,1-.64,1.22c-1,.75-2.9,2.23-8.62,2.2a16.82,16.82,0,0,1-9.68-2.73,1.62,1.62,0,0,1-.63-1.38Z"/><path class="cls-15" d="M253.63,369.73c.11-.69,2.65-2.61,7.46-2.6s7.72,2.2,7.72,3.21c0,1.46-3.63,2.76-8,2.58C257,372.77,253.49,370.64,253.63,369.73Z"/><path class="cls-16" d="M258.59,370.71c2,.51,7.78.7,7.76-1.31,0-2.9-2.78-1.28-1.34-7.41,1-4.26,1.85-10.9,4.66-16.73,2.21-4.6,1.87-3.21-.49-1.91a5.11,5.11,0,0,0-2.09,3.1,24.93,24.93,0,0,1-1.27,4.44c-1.29,3.31-3.14,9.39-3.14,9.39s-1.93-16.38.21-21-2.8-.58-3.28,1.93,0,10.74.27,14.69c.22,3.44,1.62,8.87-.66,10.35C257.49,367.38,254.74,369.72,258.59,370.71Z"/><path class="cls-8" d="M261,345s2.92-.35,4.93,3.07l-2.51-5.63s2.41-1.21,5.43,2.41c0,0-1.52-6-5.34-7.25a6.29,6.29,0,0,1,5.34-.7s-2.36-3.48-5.43-3-3.23-6.45-3.23-6.45-2.71,3.28-2.51,6.1c0,0-4.08-.05-4.89-3.28,0,0,.46,5.49,2.27,6.5,0,0-5,1.71-5.54,5.79,0,0,2.22-3,5.09-1.06,0,0-.76,4-3,4.43,0,0,3.42.5,5.53-1.21a15.83,15.83,0,0,0,2,6.75S259.32,347.24,261,345Z"/><path class="cls-8" d="M269.72,354.41s2.92-.35,4.94,3.07l-2.52-5.63s2.42-1.21,5.44,2.41c0,0-1.52-6-5.35-7.25a6.32,6.32,0,0,1,5.35-.7s-2.37-3.48-5.44-3-3.22-6.45-3.22-6.45-2.72,3.28-2.52,6.1c0,0-4.08-.06-4.88-3.28,0,0,.45,5.49,2.26,6.5,0,0-5,1.71-5.53,5.79,0,0,2.21-3,5.08-1.06,0,0-.75,4-3,4.43,0,0,3.42.5,5.54-1.21a15.91,15.91,0,0,0,2,6.75S268,356.63,269.72,354.41Z"/><path class="cls-14" d="M772.86,251.33a2.62,2.62,0,0,1,.59-1.33c1.5-2.1,5-4.15,12.26-3.86,6.28.25,9.51,2.6,10.78,3.82a2,2,0,0,1,.63,1.57l-.62,14.41a2,2,0,0,1-.79,1.52c-1.23.93-3.6,2.76-10.68,2.72-6.43,0-10.55-2.3-12-3.38a2,2,0,0,1-.78-1.71Z"/><path class="cls-15" d="M775.43,251.29c.14-.85,3.28-3.24,9.24-3.23s9.56,2.74,9.56,4c0,1.82-4.49,3.42-9.85,3.21C779.62,255.06,775.26,252.42,775.43,251.29Z"/><path class="cls-16" d="M781.57,252.5c2.45.63,9.65.87,9.61-1.61,0-3.6-3.43-1.59-1.65-9.19,1.24-5.28,2.29-13.5,5.77-20.73,2.74-5.69,2.31-4-.61-2.36-2,1.1-2.59,3.84-2.59,3.84a30.64,30.64,0,0,1-1.57,5.5c-1.6,4.1-3.89,11.64-3.89,11.64s-2.39-20.3.26-26-3.47-.71-4.06,2.4,0,13.3.33,18.2c.27,4.26,2,11-.82,12.82C780.21,248.38,776.8,251.28,781.57,252.5Z"/><path class="cls-8" d="M784.59,220.68s3.62-.44,6.12,3.8l-3.12-7s3-1.5,6.73,3c0,0-1.88-7.48-6.62-9a7.81,7.81,0,0,1,6.62-.87s-2.93-4.31-6.73-3.68-4-8-4-8-3.37,4.06-3.12,7.55c0,0-5.05-.06-6.05-4.05,0,0,.56,6.8,2.81,8,0,0-6.24,2.12-6.87,7.18,0,0,2.75-3.75,6.3-1.31,0,0-.93,5-3.68,5.48,0,0,4.25.63,6.86-1.49a19.69,19.69,0,0,0,2.5,8.36S782.47,223.42,784.59,220.68Z"/><path class="cls-8" d="M795.37,232.31s3.61-.43,6.11,3.81l-3.12-7s3-1.5,6.74,3c0,0-1.89-7.49-6.63-9a7.84,7.84,0,0,1,6.63-.87s-2.93-4.3-6.74-3.68-4-8-4-8-3.37,4-3.12,7.54c0,0-5-.06-6-4.05,0,0,.56,6.8,2.81,8.05,0,0-6.24,2.12-6.86,7.17,0,0,2.74-3.74,6.3-1.31,0,0-.94,5-3.68,5.49,0,0,4.24.62,6.86-1.5a19.73,19.73,0,0,0,2.49,8.36S793.25,235.06,795.37,232.31Z"/><path class="cls-14" d="M746,262.41a2.41,2.41,0,0,1,.53-1.2c1.36-1.9,4.49-3.75,11-3.48,5.66.23,8.57,2.34,9.72,3.44a1.8,1.8,0,0,1,.56,1.42l-.55,13a1.82,1.82,0,0,1-.71,1.36c-1.11.84-3.25,2.49-9.63,2.46-5.8,0-9.51-2.08-10.81-3a1.8,1.8,0,0,1-.7-1.54Z"/><path class="cls-15" d="M748.36,262.37c.12-.77,2.95-2.92,8.32-2.91s8.62,2.46,8.62,3.59c0,1.63-4,3.08-8.88,2.89C752.13,265.77,748.2,263.39,748.36,262.37Z"/><path class="cls-16" d="M753.89,263.47c2.21.56,8.69.77,8.67-1.46,0-3.25-3.1-1.44-1.5-8.28,1.12-4.76,2.07-12.17,5.2-18.68,2.48-5.14,2.09-3.59-.55-2.14a5.73,5.73,0,0,0-2.33,3.47,27.25,27.25,0,0,1-1.41,5c-1.45,3.69-3.51,10.48-3.51,10.48s-2.15-18.29.24-23.45-3.13-.64-3.66,2.17,0,12,.29,16.4c.25,3.84,1.82,9.9-.74,11.56C752.67,259.75,749.59,262.36,753.89,263.47Z"/><path class="cls-8" d="M756.62,234.78s3.26-.39,5.51,3.43l-2.81-6.3s2.69-1.35,6.07,2.7c0,0-1.7-6.74-6-8.09a7,7,0,0,1,6-.79s-2.65-3.88-6.07-3.32-3.6-7.19-3.6-7.19-3,3.65-2.81,6.8c0,0-4.56-.06-5.46-3.65,0,0,.51,6.12,2.53,7.25,0,0-5.62,1.91-6.18,6.46,0,0,2.47-3.37,5.68-1.18,0,0-.85,4.5-3.32,4.95,0,0,3.82.56,6.18-1.35a17.82,17.82,0,0,0,2.25,7.53S754.71,237.25,756.62,234.78Z"/><path class="cls-8" d="M766.33,245.27s3.26-.4,5.51,3.42L769,242.4s2.7-1.35,6.08,2.7c0,0-1.7-6.75-6-8.1a7,7,0,0,1,6-.79s-2.65-3.87-6.08-3.31-3.59-7.2-3.59-7.2-3,3.66-2.81,6.8c0,0-4.56-.05-5.46-3.65,0,0,.51,6.13,2.53,7.25,0,0-5.62,1.91-6.18,6.47,0,0,2.47-3.38,5.68-1.18,0,0-.85,4.49-3.32,4.94,0,0,3.82.57,6.18-1.35a17.84,17.84,0,0,0,2.25,7.54S764.41,247.74,766.33,245.27Z"/><path class="cls-14" d="M737.08,284.07a2.57,2.57,0,0,1,.6-1.37c1.53-2.15,5.09-4.24,12.54-3.94,6.42.25,9.73,2.65,11,3.9a2.1,2.1,0,0,1,.64,1.61L761.26,299a2.06,2.06,0,0,1-.81,1.55c-1.26.95-3.69,2.83-10.93,2.78-6.58,0-10.79-2.35-12.26-3.45a2.06,2.06,0,0,1-.81-1.75Z"/><path class="cls-15" d="M739.7,284c.14-.88,3.35-3.32,9.45-3.31s9.78,2.8,9.78,4.07c0,1.86-4.59,3.5-10.07,3.28C744,287.88,739.52,285.18,739.7,284Z"/><path class="cls-16" d="M746,285.27c2.51.64,9.87.88,9.84-1.66-.05-3.68-3.52-1.63-1.7-9.4,1.27-5.4,2.35-13.81,5.91-21.2,2.8-5.83,2.36-4.06-.63-2.42-2,1.13-2.65,3.93-2.65,3.93a30.7,30.7,0,0,1-1.6,5.63c-1.64,4.2-4,11.9-4,11.9s-2.44-20.76.27-26.61-3.55-.73-4.16,2.45,0,13.61.34,18.62c.28,4.36,2.06,11.24-.84,13.12C744.59,281.05,741.1,284,746,285.27Z"/><path class="cls-8" d="M749.08,252.71s3.7-.45,6.25,3.89l-3.19-7.14s3.06-1.53,6.89,3.06c0,0-1.93-7.66-6.77-9.19a8,8,0,0,1,6.77-.89s-3-4.4-6.89-3.77-4.08-8.16-4.08-8.16-3.45,4.14-3.19,7.72c0,0-5.17-.07-6.19-4.15,0,0,.57,6.95,2.87,8.23,0,0-6.38,2.17-7,7.34,0,0,2.81-3.83,6.44-1.34,0,0-1,5.1-3.76,5.61,0,0,4.34.64,7-1.53a20.06,20.06,0,0,0,2.55,8.55S746.91,255.52,749.08,252.71Z"/><path class="cls-8" d="M760.1,264.61s3.7-.45,6.25,3.89l-3.19-7.14s3.06-1.53,6.89,3.06c0,0-1.93-7.66-6.78-9.19a8,8,0,0,1,6.78-.89s-3-4.4-6.89-3.77-4.09-8.16-4.09-8.16-3.44,4.14-3.19,7.72c0,0-5.16-.07-6.18-4.15,0,0,.57,7,2.87,8.23,0,0-6.38,2.17-7,7.34,0,0,2.81-3.83,6.44-1.34,0,0-1,5.1-3.76,5.61,0,0,4.34.64,7-1.53a20.06,20.06,0,0,0,2.55,8.55S757.93,267.42,760.1,264.61Z"/><path class="cls-14" d="M711.23,290.48a2.94,2.94,0,0,1,.69-1.56c1.76-2.46,5.83-4.86,14.34-4.52,7.35.3,11.13,3,12.62,4.47a2.4,2.4,0,0,1,.73,1.84l-.72,16.86a2.33,2.33,0,0,1-.92,1.77c-1.44,1.09-4.22,3.24-12.51,3.19-7.52,0-12.34-2.7-14-4a2.35,2.35,0,0,1-.92-2Z"/><path class="cls-15" d="M714.24,290.43c.15-1,3.83-3.79,10.8-3.78s11.19,3.2,11.19,4.66c0,2.12-5.25,4-11.52,3.75C719.13,294.83,714,291.75,714.24,290.43Z"/><path class="cls-16" d="M721.42,291.85c2.86.73,11.29,1,11.25-1.9-.06-4.21-4-1.86-1.94-10.75,1.45-6.17,2.68-15.79,6.75-24.25,3.21-6.66,2.71-4.65-.71-2.77-2.35,1.29-3,4.5-3,4.5a36,36,0,0,1-1.83,6.44c-1.88,4.8-4.55,13.61-4.55,13.61s-2.8-23.75.3-30.44-4.06-.83-4.75,2.81,0,15.56.38,21.29c.32,5,2.35,12.85-1,15C719.83,287,715.84,290.41,721.42,291.85Z"/><path class="cls-8" d="M725,254.61s4.23-.51,7.15,4.45l-3.65-8.17s3.5-1.76,7.88,3.5c0,0-2.2-8.76-7.75-10.51,0,0,3.74-2.56,7.75-1,0,0-3.43-5-7.88-4.31s-4.67-9.34-4.67-9.34-3.94,4.74-3.65,8.83c0,0-5.91-.07-7.08-4.74,0,0,.66,7.95,3.29,9.41,0,0-7.3,2.48-8,8.39,0,0,3.21-4.37,7.37-1.53,0,0-1.1,5.84-4.31,6.42,0,0,5,.73,8-1.75,0,0,.29,5.7,2.92,9.78C722.33,264,722.48,257.82,725,254.61Z"/><path class="cls-8" d="M737.56,268.22s4.24-.51,7.15,4.45l-3.64-8.17s3.5-1.75,7.88,3.5c0,0-2.2-8.76-7.75-10.51,0,0,3.73-2.55,7.75-1,0,0-3.43-5-7.88-4.31s-4.68-9.34-4.68-9.34-3.94,4.75-3.64,8.83c0,0-5.92-.07-7.08-4.74,0,0,.65,8,3.28,9.41,0,0-7.3,2.49-8,8.4,0,0,3.21-4.38,7.37-1.54,0,0-1.09,5.84-4.3,6.43,0,0,5,.73,8-1.76,0,0,.29,5.7,2.92,9.78C734.94,277.63,735.08,271.43,737.56,268.22Z"/><line class="cls-27" x1="149.99" y1="191.12" x2="201.84" y2="191.87"/><line class="cls-27" x1="178.62" y1="174.66" x2="178.62" y2="239.51"/><line class="cls-27" x1="254.68" y1="175.96" x2="254.68" y2="240.81"/><line class="cls-27" x1="218.81" y1="174.66" x2="218.81" y2="185.31"/><line class="cls-27" x1="218.43" y1="213.68" x2="218.25" y2="238.96"/><line class="cls-27" x1="235.78" y1="191.63" x2="291.12" y2="191.75"/><g id="b1-store3"><path class="cls-28" d="M1232.42,393.08,934.29,296.84s21.18-31.49,31.25-62.5c9.85-30.33,5.16-68,5.16-68L1248,167s13.06,30.77,13.65,93.89C1262.59,356.5,1232.42,393.08,1232.42,393.08Z"/><path class="cls-28" d="M934.29,295.84V319.2l298.13,100.23s37.12-35.61,29.31-149.73c0,0,.86,83.42-29.31,122.38Z"/><line class="cls-29" x1="1232.42" y1="418.43" x2="1232.42" y2="392.12"/></g><rect x="889.88" y="424.32" width="92.33" height="20.72"/><text class="cls-30" transform="translate(902.57 439.68)"><tspan class="cls-31">T</tspan><tspan class="cls-32" x="7.13" y="0">O</tspan><tspan x="16.22" y="0">A</tspan><tspan class="cls-33" x="23.92" y="0">S</tspan><tspan x="31.13" y="0">TERIA</tspan></text><path class="cls-34" d="M270,154H248.82c-2.37,0-3.2-1.74-2.8-2.86a4.16,4.16,0,0,1,1.15-1.9,4.38,4.38,0,0,1,3.21-.94h22.15c2.67,0,3.74,1.48,3.26,2.85C274.88,153.64,272.61,153.9,270,154Z"/><path class="cls-34" d="M265.7,159.49H244.55c-2.37,0-3.2-1.73-2.8-2.85a4.16,4.16,0,0,1,1.15-1.9,4.43,4.43,0,0,1,3.21-1h22.15c2.67,0,3.74,1.49,3.26,2.85C270.61,159.18,268.34,159.43,265.7,159.49Z"/><path class="cls-34" d="M261.46,165H240.31c-2.37,0-3.2-1.74-2.8-2.86a4.1,4.1,0,0,1,1.15-1.89,4.41,4.41,0,0,1,3.21-1H264c2.67,0,3.74,1.49,3.26,2.85C266.37,164.71,264.1,165,261.46,165Z"/><path class="cls-34" d="M257.27,170.72H236.11c-2.33,0-3.2-1.74-2.79-2.85a4.14,4.14,0,0,1,1.14-1.9,4.42,4.42,0,0,1,3.22-.95h22.14c2.67,0,3.75,1.49,3.26,2.85C262.18,170.41,259.9,170.66,257.27,170.72Z"/><path class="cls-35" d="M272.52,147.52H250.38a4.43,4.43,0,0,0-3.21.95,4.16,4.16,0,0,0-1.15,1.9,2.17,2.17,0,0,0,1.69,2.68h-1.6a4.43,4.43,0,0,0-3.21.95,4.16,4.16,0,0,0-1.15,1.9,2.17,2.17,0,0,0,1.67,2.68h-1.55a4.43,4.43,0,0,0-3.21.95,4.16,4.16,0,0,0-1.15,1.9c-.4,1.12.43,2.85,2.8,2.85h-2.63a4.47,4.47,0,0,0-3.22.95,4.27,4.27,0,0,0-1.15,1.9c-.4,1.12.47,2.85,2.8,2.85h21.16c2.63-.06,4.91-.31,5.81-2.85.48-1.36-.59-2.85-3.26-2.85h1.64c2.64-.06,4.91-.31,5.82-2.85.38-1.09-.25-2.26-1.89-2.68h.31c2.64-.05,4.91-.31,5.81-2.85.4-1.1-.25-2.27-1.91-2.68H270c2.64-.06,4.91-.31,5.81-2.85C276.27,149,275.2,147.52,272.52,147.52Z"/><path class="cls-35" d="M247.23,156.93l.31-.45h14.35a.15.15,0,0,1,.15.15v1.75l-.44.55Z"/><rect class="cls-36" x="247.08" y="156.92" width="14.57" height="2.15" rx="0.3" ry="0.3"/><g id="b1-store1"><path class="cls-28" d="M620.88,124.52S579.81,117.73,485.94,99C403.68,82.63,336.35,68.25,336.35,68.25S454.42-16.31,716.48,28.93Z"/><polygon class="cls-28" points="336.35 68.69 336.35 88.86 621.22 145.52 714.67 54.02 716.48 28.93 620.59 123.52 336.35 68.69"/><line class="cls-29" x1="620.59" y1="123.52" x2="620.59" y2="145.52"/></g><g id="b1-store2"><polygon class="cls-28" points="965.65 140.93 731.26 143.13 619.66 124.46 697.44 47.51 771.6 55.03 950.22 53.84 965.65 140.93"/><polygon class="cls-28" points="620.03 123.98 620.66 145.98 729.23 163.48 965.65 162.48 965.65 139.91 730.83 142.48 620.03 123.98"/></g><g id="b1-store4"><path class="cls-28" d="M789.55,588.45l-82.48-182s66.29-7.47,129.06-36.56c71.44-33.1,98.44-74.19,98.44-74.19L1232.7,391.9s-58.13,78.16-217.48,141.59C923.07,567.4,845.4,580.73,789.55,588.45Z"/><path class="cls-28" d="M707.07,407.4v21.91l82.28,183.63s146.72-18.88,273.39-74.54c64-28.14,141.58-76.59,170-118.85V391.9S1124.07,540.56,789.55,588.45Z"/><line class="cls-29" x1="789.55" y1="588.45" x2="789.55" y2="612.94"/></g><g id="b1-store7"><path class="cls-28" d="M223.46,535.54v25.18s59.48,24.53,117.6,38v-25S275,555.92,223.46,535.54Z"/><polygon class="cls-28" points="365.29 413.93 365.95 431.92 355.64 459.26 357.64 484.26 345.84 515.38 360.08 520.91 359.64 546.32 341.06 598.71 341.06 573.72 320.31 497.6 365.29 413.93"/><path class="cls-28" d="M316.2,408.16l-7.95,15.42-60.78,39.54L261.25,487l-37.79,48.35s63.57,26.57,117.77,37.9l18.85-52.33-20.22-8.45,13.23-34.2-2-26,14.2-38.34S351.46,413.35,316.2,408.16Z"/><polygon class="cls-28" points="247.94 463.78 248.94 486.87 254.17 495.9 261.71 486.65 247.94 463.78"/></g><g id="b1-store6"><path class="cls-28" d="M341.42,573.24l18.85-52.33-20.5-8.5,13-33.5-2-26.14,14.69-38.85s29.43,3.07,73.29,3.72c50.06.75,76.62,1.08,76.62,1.08L493,598.41s-46.55-3.5-98.06-13.22C354.94,577.64,341.42,573.24,341.42,573.24Z"/><path class="cls-28" d="M492.62,624.53S458.43,621,413.09,614c-43.18-6.66-71.93-15.43-71.93-15.43v-25s32.4,7.79,75.24,15.66c43,6.77,76.22,9.34,76.22,9.34Z"/><path class="cls-28" d="M515.39,418.72l-5,64.51-17.77,141.3s-.37-25.85,0-26S515.39,418.72,515.39,418.72Z"/></g><g id="b1-store5"><path class="cls-28" d="M515.33,418.43s127.46-2,191.37-12.15l82.48,182.05v24.49s-160,27.13-296.26,11.62V598.27Z"/><path class="cls-29" d="M492.4,598.54s126.12,16.67,296.26-9.94"/></g><text class="cls-30" transform="translate(819.9 -8.69)">b1-<tspan class="cls-33" x="19.24" y="0">s</tspan><tspan class="cls-37" x="24.9" y="0">t</tspan><tspan x="29.71" y="0">o</tspan><tspan class="cls-38" x="37.22" y="0">r</tspan><tspan x="42.31" y="0">e5</tspan></text><text class="cls-30" transform="translate(915.64 -10.73)">b1-<tspan class="cls-33" x="19.24" y="0">s</tspan><tspan class="cls-37" x="24.9" y="0">t</tspan><tspan x="29.71" y="0">o</tspan><tspan class="cls-38" x="37.22" y="0">r</tspan><tspan x="42.31" y="0">e6</tspan></text></svg>