<svg width="40" height="40" viewBox="0 0 40 40" fill="none" xmlns="http://www.w3.org/2000/svg">
<path fill-rule="evenodd" clip-rule="evenodd" d="M40 20C40 31.0457 31.0457 40 20 40C8.9543 40 0 31.0457 0 20C0 8.9543 8.9543 0 20 0C31.0457 0 40 8.9543 40 20ZM12.0607 15.9393C11.4749 15.3536 10.5251 15.3536 9.93934 15.9393C9.35355 16.5251 9.35355 17.4749 9.93934 18.0607L18.9393 27.0607C19.5251 27.6464 20.4749 27.6464 21.0607 27.0607L30.0607 18.0607C30.6464 17.4749 30.6464 16.5251 30.0607 15.9393C29.4749 15.3536 28.5251 15.3536 27.9393 15.9393L20 23.8787L12.0607 15.9393Z" fill="#0E0E0D"/>
</svg>
