<svg width="83" height="88" viewBox="0 0 83 88" fill="none" xmlns="http://www.w3.org/2000/svg">
<path d="M15.8287 0.2C15.8287 5.2 16.0287 10.2 15.7287 15.2C15.6287 18 16.7287 18.7 19.3287 18.7C27.3287 18.7 27.3287 18.8 27.3287 26.7C27.3287 31.2 27.3287 35.6 27.9287 40.2C32.7287 26.9 37.6287 13.4 42.4287 0C42.7287 0 43.0287 0.1 43.3287 0.1C43.3287 5.1 43.5287 10.1 43.2287 15.1C43.1287 18.1 44.1287 19 46.9287 18.7C49.3287 18.5 51.7287 18.7 54.4287 18.7C54.4287 26.2 54.4287 33.2 54.4287 40.2C54.7287 40.3 55.0287 40.3 55.3287 40.4C60.1287 27 64.9287 13.5 69.8287 0C70.1287 0 70.3287 0 70.6287 0C70.7287 1.1 70.8287 2.2 70.8287 3.4C70.8287 7.2 71.0287 11 70.8287 14.8C70.6287 17.8 71.5287 19.1 74.6287 18.8C77.0287 18.6 79.4287 18.8 82.1287 18.8C82.1287 24.7 81.9287 57.7 82.2287 64.3C82.3287 67.6 81.1287 68.6 78.0287 68.3C75.8287 68.1 73.6287 68.3 70.9287 68.3C70.9287 74.7 70.9287 80.8 70.9287 86.9C70.5287 87 70.2287 87 69.8287 87.1C65.0287 73.5 60.1287 60 55.3287 46.4C55.1287 46.4 54.8287 46.5 54.6287 46.5C54.6287 52.4 54.4287 58.4 54.7287 64.3C54.8287 67.4 53.7287 68.4 50.7287 68.2C48.4287 68 46.1287 68.2 43.4287 68.2C43.4287 74.6 43.4287 80.7 43.4287 86.7C43.1287 86.8 42.7287 86.8 42.4287 86.9C37.6287 73.5 32.8287 60.1 28.0287 46.7C27.8287 46.7 27.5287 46.8 27.3287 46.8C27.3287 52.6 27.1287 58.4 27.4287 64.1C27.5287 67.3 26.6287 68.3 23.3287 68.3C15.8287 68.1 15.8287 68.3 15.8287 75.7C15.8287 79 15.8287 82.4 15.7287 85.7C15.7287 85.9 15.5287 86.1 15.3287 86.6C14.9287 86.1 14.5287 85.7 14.3287 85.3C9.62873 72.3 4.92873 59.3 0.428725 46.2C-0.0712746 44.7 -0.171275 42.7 0.328725 41.3C4.92873 27.8 9.72873 14.5 14.5287 1.2C14.6287 0.8 14.9287 0.5 15.1287 0.1C15.3287 0.1 15.6287 0.2 15.8287 0.2Z" fill="#0E0E0D"/>
</svg>
