<?xml version="1.0" encoding="iso-8859-1"?>
<!-- Generator: Adobe Illustrator 19.0.0, SVG Export Plug-In . SVG Version: 6.00 Build 0)  -->
<svg version="1.1" id="Layer_1" xmlns="http://www.w3.org/2000/svg" xmlns:xlink="http://www.w3.org/1999/xlink" x="0px" y="0px"
	 viewBox="0 0 300.439 300.439" style="enable-background:new 0 0 300.439 300.439;" xml:space="preserve">
<g>
	<path style="fill:#E6875B;" d="M150.22,0c82.959,0,150.219,67.261,150.219,150.219c0,82.968-67.261,150.219-150.219,150.219
		S0.001,233.187,0.001,150.219C0.001,67.261,67.262,0,150.22,0z"/>
	<path style="fill:#475F6C;" d="M150.22,163.467l99.257,99.295c4.685-4.131,9.107-8.553,13.247-13.238l-99.267-99.304l37.705-37.696
		c26.476,23.397,61.167,37.696,99.276,37.696c0-3.953-0.291-7.84-0.591-11.727c-0.207-2.375-0.422-4.76-0.723-7.107
		c-32.391-0.319-61.947-12.393-84.696-32.119l48.363-48.277c-4.131-4.685-8.544-9.107-13.229-13.247l-48.38,48.286
		c-19.735-22.749-31.818-52.295-32.128-84.705c-2.375-0.3-4.769-0.526-7.164-0.732C158.022,0.291,154.154,0,150.22,0v0.009
		c0,38.109,14.299,72.8,37.705,99.276l-37.705,37.696L50.935,37.696l-0.366,0.338l-0.535,0.488L38.607,49.939l-0.131,0.141
		l-0.779,0.864l99.286,99.276l-37.696,37.705c-26.486-23.407-61.168-37.706-99.286-37.706c0,3.981,0.291,7.887,0.591,11.792
		l0.714,7.042v0.009c32.41,0.319,61.956,12.393,84.705,32.138l-48.314,48.314l1.183,1.296l10.938,10.919l1.127,1.014l48.305-48.305
		c19.726,22.768,31.809,52.286,32.128,84.686l0.103,0.019l6.901,0.695c3.915,0.31,7.84,0.601,11.839,0.601
		c0-38.128-14.299-72.8-37.696-99.276C112.525,201.162,150.22,163.467,150.22,163.467z"/>
	<path style="fill:#CF7952;" d="M178.386,291.05c-82.959,0-150.219-67.251-150.219-150.219c0-61.092,36.531-113.556,88.883-137.038
		C50.071,18.918,0.001,78.668,0.001,150.219c0,82.968,67.261,150.219,150.219,150.219c21.876,0,42.587-4.779,61.336-13.182
		C200.872,289.679,189.803,291.05,178.386,291.05z"/>
	<path style="fill:#405561;" d="M130.11,282.985c0.714,5.295,1.221,10.675,1.277,16.158l0.085,0.019l6.91,0.695
		c3.915,0.291,7.84,0.582,11.839,0.582c0-4.112-0.244-8.178-0.573-12.205C142.953,286.938,136.456,285.126,130.11,282.985z"/>
	<path style="fill:#405561;" d="M1.306,169.053c10.497,0.113,20.646,1.568,30.41,4c-1.427-6.506-2.385-13.201-2.939-20.007
		c-9.304-1.831-18.918-2.826-28.776-2.826c0,3.99,0.291,7.905,0.591,11.811C0.592,162.03,1.306,169.053,1.306,169.053z"/>
	<path style="fill:#405561;" d="M37.706,50.962L49.93,63.186l0.019-0.028c3.305-5.427,6.91-10.647,10.853-15.595l-9.914-9.914
		C46.193,41.789,41.856,46.286,37.706,50.962z"/>
	<path style="fill:#405561;" d="M50.916,262.724l18.608-18.571l-0.084-0.113c-4.262-4.497-8.215-9.257-11.895-14.252l-0.056-0.075
		l-19.801,19.754C41.818,254.171,46.231,258.593,50.916,262.724z"/>
</g>
<g>
</g>
<g>
</g>
<g>
</g>
<g>
</g>
<g>
</g>
<g>
</g>
<g>
</g>
<g>
</g>
<g>
</g>
<g>
</g>
<g>
</g>
<g>
</g>
<g>
</g>
<g>
</g>
<g>
</g>
</svg>
