<?xml version="1.0" encoding="utf-8"?>
<!-- Generator: Adobe Illustrator 26.3.1, SVG Export Plug-In . SVG Version: 6.00 Build 0)  -->
<svg version="1.1" id="Layer_1" xmlns="http://www.w3.org/2000/svg" xmlns:xlink="http://www.w3.org/1999/xlink" x="0px" y="0px"
	 viewBox="0 0 512 512" style="enable-background:new 0 0 512 512;" xml:space="preserve">
<g>
	<g>
		<g>
			<path d="M146.6,109.3c-54.9,0-55.7,0-101.4,0c-24.5,0-44.5,19.9-44.6,44.4L0,292.1C-0.1,302.5,8.3,311,18.7,311c0,0,0.1,0,0.1,0
				c10.4,0,18.8-8.4,18.8-18.7l0.7-138.4c0,0,0,0,0,0c0-2.1,1.7-3.7,3.8-3.7s3.7,1.7,3.7,3.7l0,316.8c0,12.5,10.1,22.6,22.6,22.6
				s22.6-10.1,22.6-22.6V289.9h9.8v180.7c0,12.5,10.1,22.6,22.6,22.6s22.6-10.1,22.6-22.6c0-298.9-0.4-128-0.4-316.5
				c0-2.1,1.7-3.9,3.8-3.9c2.1-0.1,3.9,1.5,4.1,3.6c0,0,0,0,0,0l-0.1,138.4c0,10.4,8.4,18.9,18.8,18.9c0,0,0,0,0,0
				c10.4,0,18.8-8.4,18.8-18.8l0.1-138.4c0,0,0-0.1,0-0.1C191.1,129.2,171.1,109.3,146.6,109.3z"/>
		</g>
	</g>
	<g>
		<g>
			<circle cx="96" cy="57.8" r="39"/>
		</g>
	</g>
	<g>
		<g>
			<path d="M510.9,262.8c-0.3-1-34.6-98.7-40-114.4c-8.7-25.3-23.2-38.1-43.2-38.1c-28,0-37.2,0-65.2,0c-20,0-34.6,12.8-43.2,38.1
				c-5.4,15.7-39.7,113.4-40,114.4c-3.4,9.7,1.7,20.4,11.5,23.8c9.8,3.4,20.4-1.7,23.8-11.5c1.1-3.2,21.7-60.4,33.2-93.4
				c-1.2,9.8,2.3-10.6-26.7,139.2c-1.2,6.4,3.7,12.4,10.2,12.4c4,0,8.9,0,14.3,0V469c0,12.4,10,22.4,22.4,22.4
				c12.4,0,22.4-10,22.4-22.4V333.4c3.2,0,6.5,0,9.7,0V469c0,12.4,10,22.4,22.4,22.4s22.4-10,22.4-22.4V333.4c5.4,0,10.2,0,14.3,0
				c6.5,0,11.4-6,10.2-12.4c-28.7-148.4-25.6-131.1-26.5-139.2c11.6,33.2,31.6,90.3,32.7,93.4c3.4,9.8,14.1,14.9,23.8,11.5
				C509.2,283.3,514.4,272.6,510.9,262.8z"/>
		</g>
	</g>
	<g>
		<g>
			<circle cx="395.3" cy="59.3" r="38.8"/>
		</g>
	</g>
	<g>
		<g>
			<path d="M239.8,43.9c-8,0-14.4,6.5-14.4,14.4v395.3c0,8,6.5,14.4,14.4,14.4c8,0,14.4-6.5,14.4-14.4V58.4
				C254.2,50.4,247.7,43.9,239.8,43.9z"/>
		</g>
	</g>
</g>
</svg>
