<?xml version="1.0" encoding="utf-8"?>
<!-- Generator: Adobe Illustrator 21.1.0, SVG Export Plug-In . SVG Version: 6.00 Build 0)  -->
<svg version="1.1" id="圖層_1" xmlns="http://www.w3.org/2000/svg" xmlns:xlink="http://www.w3.org/1999/xlink" x="0px" y="0px"
	 viewBox="0 0 181.3 184" style="enable-background:new 0 0 181.3 184;" xml:space="preserve">
<path d="M69.5,128.6h9.2l59-59l-9.2-9.2l-54.3,54.5L49.3,90.1l-9.2,9.2L69.5,128.6z"/>
<path d="M99.6,0.9c20.7,1.3,40.1,11.6,54.3,25.9c16.8,18.1,25.9,40.1,25.9,66c0,20.7-7.8,40.1-20.7,56.9
	c-12.9,15.5-31.1,27.2-51.7,31.1c-20.7,3.9-41.4,1.3-59.5-9.1c-18.1-10.3-32.3-25.9-40.1-45.3C0,107-1.3,85,5.2,65.6
	c6.5-20.7,18.1-37.5,36.2-49.2C58.2,4.8,78.9-0.4,99.6,0.9z M106.1,167.8c16.8-3.9,32.3-12.9,44-27.2c10.4-14.2,16.8-31,15.5-49.2
	c0-20.7-7.8-41.4-22-55.6c-12.9-12.9-28.5-20.7-46.6-22c-16.8-1.3-34.9,2.6-49.2,12.9C33.6,37.2,23.3,51.4,18.1,69.5
	c-5.2,16.8-5.2,34.9,2.6,51.7c7.8,16.8,19.4,29.8,34.9,38.8S89.2,171.7,106.1,167.8z"/>
</svg>
