<svg width="113" height="112" viewBox="0 0 113 112" fill="none" xmlns="http://www.w3.org/2000/svg">
<path d="M85.6588 29.8193H26.9519C26.0869 29.8193 25.2573 30.163 24.6457 30.7746C24.0341 31.3863 23.6904 32.2158 23.6904 33.0808V78.7418C23.6904 79.6068 24.0341 80.4363 24.6457 81.048C25.2573 81.6596 26.0869 82.0032 26.9519 82.0032H85.6588C86.5238 82.0032 87.3534 81.6596 87.965 81.048C88.5767 80.4363 88.9203 79.6068 88.9203 78.7418V33.0808C88.9203 32.2158 88.5767 31.3863 87.965 30.7746C87.3534 30.163 86.5238 29.8193 85.6588 29.8193ZM82.3973 65.6958C79.8023 65.6958 77.3136 66.7266 75.4786 68.5616C73.6437 70.3965 72.6128 72.8853 72.6128 75.4803H39.9979C39.9979 72.8853 38.967 70.3965 37.1321 68.5616C35.2971 66.7266 32.8084 65.6958 30.2134 65.6958V46.1268C32.8084 46.1268 35.2971 45.0959 37.1321 43.261C38.967 41.4261 39.9979 38.9373 39.9979 36.3423H72.6128C72.6128 38.9373 73.6437 41.4261 75.4786 43.261C77.3136 45.0959 79.8023 46.1268 82.3973 46.1268V65.6958Z" fill="black"/>
<path d="M56.3053 42.8655C49.1104 42.8655 43.2593 48.7166 43.2593 55.9115C43.2593 63.1063 49.1104 68.9574 56.3053 68.9574C63.5001 68.9574 69.3512 63.1063 69.3512 55.9115C69.3512 48.7166 63.5001 42.8655 56.3053 42.8655ZM56.3053 62.4344C52.7078 62.4344 49.7823 59.5089 49.7823 55.9115C49.7823 52.314 52.7078 49.3885 56.3053 49.3885C59.9027 49.3885 62.8282 52.314 62.8282 55.9115C62.8282 59.5089 59.9027 62.4344 56.3053 62.4344Z" fill="black"/>
<rect x="3.89404" y="3.5" width="104.823" height="104.823" rx="52.4113" stroke="black" stroke-width="7"/>
</svg>
