<svg width="113" height="112" viewBox="0 0 113 112" fill="none" xmlns="http://www.w3.org/2000/svg">
<g clip-path="url(#clip0_106_1264)">
<path d="M42.3404 78.4075H47.8888L83.5238 42.1246L77.9754 36.4753L45.1537 69.9733L30.1495 54.6963L24.6011 60.3456L42.3404 78.4075Z" fill="black"/>
<path fill-rule="evenodd" clip-rule="evenodd" d="M61.2031 0.119595C74.0539 0.916895 87.1016 7.29529 95.9365 16.0656C106.378 27.2278 112 40.7819 112 56.7279C112 69.4847 107.181 81.4442 99.1492 91.8091C91.1174 101.377 80.873 108.552 68.0222 110.944C55.1713 113.336 41.3205 111.742 30.0761 105.363C18.8316 98.9848 9.99669 89.4172 5.17763 77.4577C0.358576 65.4982 -0.4446 51.9441 3.57128 39.9846C7.58716 27.2278 14.8157 16.8629 26.0602 9.68719C36.5015 2.51149 48.3523 -0.677705 61.2031 0.119595ZM66.219 103.971C76.6603 101.579 86.2984 95.9983 93.527 87.228C99.9524 78.4577 104.165 68.5 104.165 56.9306C104.165 44.1738 99.346 30.417 90.5111 21.6467C82.4793 13.6737 71.8412 8.88989 60.5968 8.09259C50.1555 7.29529 38.911 9.68719 30.0761 16.0656C21.2411 22.444 13.8157 31.2143 10.603 42.3765C7.39033 52.7414 7.39033 63.9036 12.2094 74.2685C17.0284 84.6334 24.257 93.6064 33.8951 99.1875C43.5332 104.769 55.7777 106.363 66.219 103.971Z" fill="black"/>
</g>
<defs>
<clipPath id="clip0_106_1264">
<rect width="111.823" height="111.823" fill="white" transform="translate(0.521973)"/>
</clipPath>
</defs>
</svg>
