<svg width="112" height="112" viewBox="0 0 112 112" fill="none" xmlns="http://www.w3.org/2000/svg">
<g clip-path="url(#clip0_106_1280)">
<path d="M61.6305 44.7291H35.5385C35.0442 44.7291 34.5702 44.5328 34.2207 44.1833C33.8712 43.8338 33.6748 43.3597 33.6748 42.8654V35.4106C33.6748 34.9163 33.8712 34.4423 34.2207 34.0927C34.5702 33.7432 35.0442 33.5469 35.5385 33.5469H61.6305C62.1248 33.5469 62.5988 33.7432 62.9483 34.0927C63.2978 34.4423 63.4942 34.9163 63.4942 35.4106V42.8654C63.4942 43.3597 63.2978 43.8338 62.9483 44.1833C62.5988 44.5328 62.1248 44.7291 61.6305 44.7291ZM37.4022 41.0017H59.7668V37.1625H37.4022V41.0017Z" fill="black"/>
<path d="M61.6305 48.6055H35.5385C35.0442 48.6055 34.5702 48.8018 34.2207 49.1513C33.8712 49.5009 33.6748 49.9749 33.6748 50.4692V57.7749C33.6748 58.2692 33.8712 58.7433 34.2207 59.0928C34.5702 59.4423 35.0442 59.6386 35.5385 59.6386H56.7103L63.4942 52.7429V50.4692C63.4942 49.9749 63.2978 49.5009 62.9483 49.1513C62.5988 48.8018 62.1248 48.6055 61.6305 48.6055ZM59.7668 55.9112H37.4022V52.1838H59.7668V55.9112Z" fill="black"/>
<path d="M43.1054 81.0902V80.9783L43.7018 78.3878H29.9476V29.8195H67.2219V48.9225L70.9493 45.4001V27.9558C70.9493 27.4615 70.7529 26.9874 70.4034 26.6379C70.0539 26.2884 69.5799 26.092 69.0856 26.092H28.0839C27.5896 26.092 27.1156 26.2884 26.7661 26.6379C26.4166 26.9874 26.2202 27.4615 26.2202 27.9558V80.1397C26.2202 80.6339 26.4166 81.108 26.7661 81.4575C27.1156 81.807 27.5896 82.0034 28.0839 82.0034H42.9936C43.009 81.6967 43.0463 81.3915 43.1054 81.0902Z" fill="black"/>
<path d="M63.4942 58.0918L62.0405 59.5641C62.4012 59.4898 62.7317 59.3103 62.9905 59.0482C63.2492 58.7862 63.4245 58.4534 63.4942 58.0918Z" fill="black"/>
<path d="M33.5596 72.3808C33.5596 72.8751 33.7559 73.3491 34.1054 73.6986C34.455 74.0482 34.929 74.2445 35.4233 74.2445H44.4436L45.0028 71.8217L45.245 70.7967V70.7035H37.287V66.9015H49.1029L52.8303 63.1741H35.4233C34.929 63.1741 34.455 63.3704 34.1054 63.7199C33.7559 64.0695 33.5596 64.5435 33.5596 65.0378V72.3808Z" fill="black"/>
<path d="M84.9086 53.4325L78.6279 47.1518C78.3491 46.8723 78.018 46.6505 77.6534 46.4992C77.2888 46.3479 76.898 46.27 76.5032 46.27C76.1085 46.27 75.7176 46.3479 75.3531 46.4992C74.9885 46.6505 74.6573 46.8723 74.3786 47.1518L48.8271 72.8524L46.7211 81.8168C46.6423 82.2035 46.6405 82.602 46.7159 82.9895C46.7913 83.3769 46.9424 83.7456 47.1605 84.0746C47.3787 84.4035 47.6596 84.6862 47.9871 84.9064C48.3147 85.1266 48.6825 85.28 49.0694 85.3578C49.2615 85.3772 49.4551 85.3772 49.6472 85.3578C49.8755 85.3951 50.1084 85.3951 50.3367 85.3578L59.3757 83.3637L84.9086 57.7749C85.1875 57.4978 85.4089 57.1682 85.5599 56.8052C85.711 56.4421 85.7887 56.0528 85.7887 55.6596C85.7887 55.2664 85.711 54.8771 85.5599 54.5141C85.4089 54.151 85.1875 53.8214 84.9086 53.5443V53.4325ZM57.4747 79.9717L50.6536 81.4813L52.3123 74.7161L71.4712 55.3521L76.7269 60.6078L57.4747 79.9717ZM78.8329 58.5018L73.5772 53.2461L76.5405 50.3201L81.8334 55.613L78.8329 58.5018Z" fill="black"/>
</g>
<rect x="3.62817" y="3.5" width="104.823" height="104.823" rx="52.4113" stroke="black" stroke-width="7"/>
<defs>
<clipPath id="clip0_106_1280">
<rect width="67.0936" height="67.0936" fill="white" transform="translate(22.4927 22.3645)"/>
</clipPath>
</defs>
</svg>
