<svg width="60" height="50" viewBox="0 0 60 50" fill="none" xmlns="http://www.w3.org/2000/svg">
<path fill-rule="evenodd" clip-rule="evenodd" d="M0.536775 7.89356L6.35183 8.43033C7.4552 5.74646 10.9681 0.450789 17.9819 0.0213697C24.9958 -0.40805 26.123 5.746 25.2284 8.43033C24.3338 11.1148 19.5207 15.6411 11.0039 14.4244C10.646 15.0208 10.1629 17.7703 10.3776 22.5655H4.38366C4.26438 20.4184 4.15106 15.7842 4.65205 14.4244L0 13.7981L0.536775 7.89356ZM12.7036 8.80672C13.5386 7.88228 15.7453 6.06917 17.8924 6.21231C18.3696 6.21232 19.0555 6.48074 18.4292 7.10697C17.3557 8.18052 16.3716 8.80672 12.7036 8.80672ZM33.158 9.5391L19.3808 20.2746C18.3965 21.6165 19.3808 22.6005 20.0965 22.6005H33.158V19.3799C34.0526 16.3382 36.7365 17.5906 37.0048 19.3799V22.6005C39.8633 22.5541 45.3033 22.58 48.1786 22.5938C48.9928 22.5976 49.6014 22.6005 49.8874 22.6005C50.8715 22.6005 51.6766 21.0797 50.8715 20.2746C50.4729 19.876 38.2394 10.6127 36.7365 9.5391C35.2335 8.46555 33.7246 9.09179 33.158 9.5391ZM10.5864 27.2074C5.43337 27.8516 3.60834 32.4261 3.33995 34.6328C3.04666 35.9747 1.99801 42.8634 2.80317 46.263C3.60834 49.6625 5.39758 50.2888 7.18683 49.6625C8.61823 49.1615 8.37963 45.7858 8.17088 44.4737C8.07008 43.8401 7.76469 43.1414 7.46628 42.4587C6.92203 41.2135 6.401 40.0215 7.18683 39.3743C8.186 38.5515 8.9921 40.393 9.90954 42.4888C10.3886 43.5831 10.898 44.7468 11.481 45.6367C12.8409 47.7122 15.2683 49.1854 16.312 49.6625C18.0714 50.1695 21.8408 50.0741 22.8428 45.6367C23.8447 41.1994 17.5943 40.0304 14.3438 40.0006C13.0914 40.0602 10.5864 39.8932 10.5864 38.7481C10.5864 37.3167 13.986 37.2272 16.312 37.2272C18.638 37.2272 22.306 35.438 22.2165 32.6647C22.1449 30.446 20.3974 28.8774 19.5326 28.3704C18.6977 27.7144 15.7394 26.5633 10.5864 27.2074ZM9.61582 32.565C9.34737 31.2235 13.1049 30.5078 13.8206 31.9388C14.3573 33.0124 9.61582 33.7281 9.61582 32.565ZM34.8009 27.7332H25.4074V34.7113H26.6599V43.2997H25.4074V49.9199H34.8009V43.2997H33.3695L35.2483 41.6894L37.0375 43.2997H35.785V49.9199H44.8207V43.2997H43.4788L39.0951 39.1844L43.4788 34.7113H44.8207V27.7332H35.785V34.7113H37.0375L35.2483 36.59L33.3695 34.7113H34.8009V27.7332ZM47.2361 42.7537H50.8146C50.6953 41.9784 50.9757 40.4635 53.0512 40.6066C55.6456 40.7855 55.5693 42.1141 55.1088 42.5747C54.9299 42.7537 49.8604 45.7357 47.2361 47.0479V50.0001H59.3135V47.0479H53.7669C55.4368 46.1831 58.8305 44.1136 59.0452 42.7537C59.2599 41.3938 59.1346 40.7557 59.0452 40.6066C58.8364 39.8312 57.8822 38.1911 55.7351 37.8332C53.5663 37.4718 52.3323 37.5776 51.7024 37.6315C51.5528 37.6444 51.4373 37.6543 51.3514 37.6543C51.083 37.6544 47.2361 38.1017 47.2361 42.7537Z" fill="#0E0E0D"/>
</svg>
