<svg width="29" height="30" viewBox="0 0 29 30" fill="none" xmlns="http://www.w3.org/2000/svg">
<path d="M23.418 29.9311C23.418 28.209 23.3475 26.4868 23.4533 24.7646C23.4885 23.8002 23.1006 23.5591 22.1837 23.5591C19.3625 23.5591 19.3625 23.5247 19.3625 20.8037C19.3625 19.2537 19.3625 17.7382 19.1509 16.1538C17.4582 20.7348 15.7302 25.3846 14.0375 30C13.9317 30 13.8259 29.9656 13.7201 29.9656C13.7201 28.2434 13.6496 26.5212 13.7554 24.7991C13.7906 23.7658 13.438 23.4558 12.4506 23.5591C11.6042 23.628 10.7579 23.5591 9.8057 23.5591C9.8057 20.9759 9.8057 18.5649 9.8057 16.1538C9.6999 16.1194 9.59411 16.1194 9.48832 16.085C7.79559 20.7003 6.10287 25.3502 4.37489 30C4.26909 30 4.19856 30 4.09277 30C4.0575 29.6211 4.02224 29.2422 4.02224 28.8289C4.02224 27.5201 3.95171 26.2112 4.02224 24.9024C4.09277 23.8691 3.77538 23.4214 2.68217 23.5247C1.83581 23.5936 0.989445 23.5247 0.0372912 23.5247C0.0372913 21.4925 0.107822 10.1263 0.00202759 7.85304C-0.0332373 6.71641 0.389942 6.37198 1.48316 6.47531C2.25899 6.5442 3.03482 6.47531 3.98697 6.47531C3.98697 4.27095 3.98697 2.16992 3.98697 0.0688856C4.12803 0.0344427 4.23383 0.0344427 4.37489 -1.95276e-07C6.06761 4.68427 7.7956 9.3341 9.48832 14.0184C9.55885 14.0184 9.66464 13.9839 9.73517 13.9839C9.73517 11.9518 9.8057 9.88519 9.69991 7.85304C9.66464 6.7853 10.0526 6.44087 11.1105 6.50976C11.9216 6.57865 12.7327 6.50976 13.6849 6.50976C13.6849 4.3054 13.6849 2.20436 13.6849 0.137774C13.7906 0.103331 13.9317 0.103329 14.0375 0.0688864C15.7302 4.68427 17.4229 9.29965 19.1157 13.915C19.1862 13.915 19.292 13.8806 19.3625 13.8806C19.3625 11.8829 19.4331 9.88519 19.3273 7.92193C19.292 6.81975 19.6094 6.47531 20.7731 6.47531C23.418 6.5442 23.418 6.47532 23.418 3.92652C23.418 2.7899 23.418 1.61883 23.4533 0.482206C23.4533 0.41332 23.5238 0.344434 23.5943 0.172218C23.7354 0.344434 23.8764 0.482204 23.947 0.619978C25.6044 5.09759 27.2619 9.5752 28.8488 14.0873C29.0251 14.6039 29.0604 15.2928 28.8841 15.775C27.2619 20.4248 25.5692 25.0057 23.8764 29.5867C23.8412 29.7245 23.7354 29.8278 23.6649 29.9656C23.5943 29.9656 23.4885 29.9311 23.418 29.9311Z" fill="#0E0E0D"/>
</svg>
