<svg width="32" height="14" viewBox="0 0 32 14" fill="none" xmlns="http://www.w3.org/2000/svg">
<path fill-rule="evenodd" clip-rule="evenodd" d="M2.76858 0.362009C2.41622 -0.0632624 1.78582 -0.122362 1.36054 0.230005C0.935273 0.582373 0.876173 1.21277 1.22854 1.63804C2.11273 2.70517 3.26268 3.85483 4.62845 4.93275L3.0089 8.17185C2.76191 8.66583 2.96213 9.26651 3.45611 9.5135C3.95009 9.76049 4.55076 9.56026 4.79775 9.06628L6.27144 6.1189C7.26457 6.77224 8.34153 7.37015 9.48843 7.86978L8.64746 11.2337C8.51351 11.7695 8.83927 12.3124 9.37507 12.4464C9.91086 12.5803 10.4538 12.2545 10.5877 11.7187L11.3733 8.5764C11.9985 8.77316 12.6402 8.938 13.2965 9.06511C13.9479 9.19128 14.6112 9.27974 15.2843 9.32569V12.4286C15.2843 12.9809 15.732 13.4286 16.2843 13.4286C16.8366 13.4286 17.2843 12.9809 17.2843 12.4286V9.33409C18.5653 9.25663 19.8736 9.01665 21.197 8.58341L21.9808 11.7187C22.1147 12.2545 22.6577 12.5803 23.1935 12.4464C23.7293 12.3124 24.055 11.7695 23.9211 11.2337L23.0728 7.84065C24.1204 7.35255 25.1736 6.73646 26.2264 5.97753L27.7708 9.06628C28.0178 9.56026 28.6184 9.76049 29.1124 9.5135C29.6064 9.26651 29.8066 8.66583 29.5596 8.17185L27.8285 4.7095C28.8417 3.8342 29.8517 2.81909 30.853 1.65082C31.2125 1.23149 31.1639 0.600192 30.7446 0.24077C30.3252 -0.118652 29.6939 -0.0700906 29.3345 0.349235C23.8286 6.77282 18.3067 7.99829 13.6768 7.1016C8.95126 6.18638 4.9729 3.02239 2.76858 0.362009Z" fill="#0E0E0D"/>
</svg>
