<svg width="25" height="30" viewBox="0 0 25 30" fill="none" xmlns="http://www.w3.org/2000/svg">
<path fill-rule="evenodd" clip-rule="evenodd" d="M12.2727 30C12.2727 30 24.5455 21.8182 24.5455 12.2727C24.5455 9.0178 23.2524 5.89618 20.9509 3.5946C18.6493 1.29302 15.5277 0 12.2727 0C9.0178 0 5.89618 1.29302 3.5946 3.5946C1.29302 5.89618 0 9.0178 0 12.2727C0 21.8182 12.2727 30 12.2727 30ZM16.3637 12.2727C16.3637 14.5321 14.5321 16.3637 12.2727 16.3637C10.0134 16.3637 8.18183 14.5321 8.18183 12.2727C8.18183 10.0134 10.0134 8.18183 12.2727 8.18183C14.5321 8.18183 16.3637 10.0134 16.3637 12.2727Z" fill="#0E0E0D"/>
</svg>
