<svg width="60" height="60" viewBox="0 0 60 60" fill="none" xmlns="http://www.w3.org/2000/svg">
<circle cx="30" cy="30" r="30" fill="#ABFF1D"/>
<path fill-rule="evenodd" clip-rule="evenodd" d="M8.40724 16.9886L12.8189 17.3958C13.656 15.3597 16.3212 11.342 21.6424 11.0162C26.9636 10.6904 27.8188 15.3593 27.1401 17.3958C26.4613 19.4325 22.8098 22.8664 16.3483 21.9433C16.0768 22.3958 15.7103 24.4818 15.8732 28.1198H11.3258C11.2353 26.4908 11.1493 22.975 11.5294 21.9433L8 21.4682L8.40724 16.9886ZM17.638 17.6812C18.2715 16.9799 19.9456 15.6043 21.5746 15.7129C21.9366 15.7129 22.4569 15.9166 21.9818 16.3917C21.1674 17.2061 20.4208 17.6812 17.638 17.6812ZM33.156 18.2372L22.7036 26.3819C21.9569 27.4 22.7037 28.1466 23.2466 28.1466H33.156V25.7032C33.8347 23.3955 35.8709 24.3457 36.0745 25.7032V28.1466C38.2432 28.1113 42.3703 28.131 44.5517 28.1414L44.5534 28.1414C45.1703 28.1444 45.6313 28.1466 45.8482 28.1466C46.5948 28.1466 47.2055 26.9927 46.5948 26.3819C46.2924 26.0795 37.0112 19.0517 35.8709 18.2372C34.7307 17.4228 33.5859 17.8979 33.156 18.2372ZM16.0314 31.6416C12.1219 32.1303 10.7373 35.6009 10.5337 37.2751C10.3112 38.2931 9.51564 43.5194 10.1265 46.0985C10.7373 48.6777 12.0948 49.1528 13.4522 48.6777C14.5382 48.2976 14.3572 45.7365 14.1988 44.7411C14.1223 44.2604 13.8906 43.7303 13.6643 43.2123C13.2513 42.2677 12.8561 41.3633 13.4522 40.8723C14.2103 40.2481 14.8218 41.6451 15.5179 43.2352C15.8813 44.0654 16.2678 44.9482 16.7101 45.6234C17.7418 47.198 19.5834 48.3157 20.3752 48.6777C21.7101 49.0623 24.5698 48.9899 25.3299 45.6234C26.0901 42.2569 21.3481 41.3701 18.882 41.3474C17.9318 41.3927 16.0314 41.266 16.0314 40.3972C16.0314 39.3113 18.6106 39.2434 20.3752 39.2434C22.1399 39.2434 24.9227 37.8859 24.8548 35.7819C24.8005 34.0986 23.4748 32.9086 22.8187 32.524C22.1852 32.0262 19.9409 31.153 16.0314 31.6416ZM15.295 35.7062C15.0914 34.6885 17.9421 34.1455 18.485 35.2311C18.8923 36.0456 15.295 36.5886 15.295 35.7062ZM34.4026 32.0403H27.276V37.3344H28.2262V43.8501H27.276V48.8727H34.4026V43.8501H33.3166L34.7419 42.6284L36.0994 43.8501H35.1492V48.8727H42.0043V43.8501H40.9862L37.6605 40.728L40.9862 37.3344H42.0043V32.0403H35.1492V37.3344H36.0994L34.7419 38.7597L33.3166 37.3344H34.4026V32.0403ZM43.8372 43.4359H46.5521C46.4616 42.8476 46.6743 41.6983 48.2489 41.8069C50.2172 41.9427 50.1593 42.9506 49.81 43.3001C49.6742 43.4359 45.8281 45.6983 43.8372 46.6937V48.9335H53V46.6937H48.7919C50.0589 46.0376 52.6335 44.4675 52.7964 43.4359C52.9593 42.4042 52.8643 41.92 52.7964 41.8069C52.638 41.2187 51.914 39.9743 50.2851 39.7029C48.6398 39.4286 47.7035 39.5089 47.2256 39.5498C47.1121 39.5596 47.0245 39.5671 46.9593 39.5671C46.7557 39.5672 43.8372 39.9065 43.8372 43.4359Z" fill="#0E0E0D"/>
</svg>
