<svg width="235" height="50" viewBox="0 0 235 50" fill="none" xmlns="http://www.w3.org/2000/svg">
<path fill-rule="evenodd" clip-rule="evenodd" d="M1.16596 17.2728L13.7972 18.4387C16.1939 12.6089 23.8244 1.10589 39.0596 0.173127C54.2948 -0.75964 56.7433 12.6079 54.8001 18.4387C52.8568 24.2698 42.402 34.1016 23.9022 31.4587C23.1249 32.7542 22.0755 38.7265 22.5419 49.1424H9.522C9.2629 44.4786 9.01675 34.4125 10.105 31.4587L0 30.0984L1.16596 17.2728ZM27.5944 19.256C29.4081 17.248 34.2015 13.3096 38.8653 13.6206C39.9017 13.6206 41.3915 14.2036 40.0313 15.5639C37.6993 17.8958 35.5618 19.256 27.5944 19.256Z" fill="#ABFF1D"/>
<path d="M66.2655 20.7722L36.3392 44.0914C34.2012 47.0061 36.3394 49.1437 37.8938 49.1437H66.2655V42.1479C68.2088 35.5408 74.0386 38.2614 74.6215 42.1479V49.1437C82.5889 49.0142 99.789 49.1437 102.605 49.1437C104.742 49.1437 106.491 45.8402 104.742 44.0914C103.876 43.2255 77.3033 23.1041 74.0386 20.7722C70.7739 18.4403 67.4963 19.8006 66.2655 20.7722Z" fill="#ABFF1D"/>
<path fill-rule="evenodd" clip-rule="evenodd" d="M111.155 16.8853C111.738 12.0919 115.703 2.15536 126.896 0.756214C138.089 -0.642937 144.515 1.8574 146.328 3.28246C148.207 4.38367 152.003 7.79091 152.158 12.6102C152.353 18.6343 144.385 22.5209 139.333 22.5209C134.28 22.5209 126.896 22.7152 126.896 25.8244C126.896 28.3118 132.337 28.6745 135.058 28.545C142.118 28.6098 155.695 31.149 153.519 40.7875C151.342 50.4261 143.154 50.6334 139.333 49.5322C137.066 48.4958 131.793 45.2959 128.839 40.7875C127.573 38.8544 126.466 36.3268 125.426 33.9498C123.433 29.3973 121.682 25.3974 119.511 27.1847C117.804 28.5904 118.936 31.1797 120.118 33.8844C120.767 35.3673 121.43 36.885 121.649 38.2613C122.102 41.1114 122.621 48.444 119.511 49.5322C115.625 50.8925 111.738 49.5322 109.989 42.1478C108.24 34.7634 110.518 19.8001 111.155 16.8853ZM124.788 12.3929C124.205 9.47903 132.367 7.92437 133.921 11.0326C135.087 13.3647 124.788 14.9193 124.788 12.3929Z" fill="#ABFF1D"/>
<path d="M179.363 1.53369H158.959V16.6912H161.68V35.3465H158.959V49.7267H179.363V35.3465H176.254L180.335 31.8486L184.222 35.3465H181.501V49.7267H201.128V35.3465H198.213L188.691 26.4075L198.213 16.6912H201.128V1.53369H181.501V16.6912H184.222L180.335 20.772L176.254 16.6912H179.363V1.53369Z" fill="#ABFF1D"/>
<path d="M216.091 11.2502H208.318C208.318 1.1453 216.674 0.173664 217.257 0.173505C218.229 0.173239 220.949 -0.409457 226.779 0.562176C231.443 1.33948 233.516 4.90218 233.969 6.58637C234.163 6.91022 234.435 8.29638 233.969 11.2502C233.503 14.204 226.131 18.6994 222.504 20.5778H234.552V26.9906H208.318V20.5778C214.018 17.7277 225.03 11.2502 225.419 10.8614C226.419 9.86086 226.585 6.97503 220.949 6.58637C216.441 6.27545 215.832 9.56605 216.091 11.2502Z" fill="#ABFF1D"/>
</svg>
