<svg width="30" height="30" viewBox="0 0 30 30" fill="none" xmlns="http://www.w3.org/2000/svg">
<path d="M5.67575 0.0688863C5.67575 1.79104 5.74628 3.5132 5.64049 5.23536C5.60522 6.19977 5.99314 6.44087 6.91003 6.44087C9.73123 6.44087 9.73123 6.47532 9.73123 9.19633C9.73123 10.7463 9.73123 12.2618 9.94282 13.8462C11.6355 9.26521 13.3635 4.61538 15.0562 0C15.162 0 15.2678 0.0344432 15.3736 0.0344432C15.3736 1.7566 15.4442 3.47876 15.3384 5.20092C15.3031 6.23421 15.6558 6.5442 16.6432 6.44087C17.4895 6.37199 18.3359 6.44087 19.2881 6.44087C19.2881 9.02411 19.2881 11.4351 19.2881 13.8462C19.3938 13.8806 19.4996 13.8806 19.6054 13.915C21.2982 9.29966 22.9909 4.64983 24.7189 0C24.8247 0 24.8952 0 25.001 0C25.0363 0.378875 25.0715 0.75775 25.0715 1.17107C25.0715 2.47991 25.142 3.78875 25.0715 5.09759C25.001 6.13088 25.3184 6.57865 26.4116 6.47532C27.2579 6.40643 28.1043 6.47532 29.0565 6.47532C29.0565 8.50746 28.9859 19.8737 29.0917 22.147C29.127 23.2836 28.7038 23.628 27.6106 23.5247C26.8348 23.4558 26.0589 23.5247 25.1068 23.5247C25.1068 25.729 25.1068 27.8301 25.1068 29.9311C24.9657 29.9656 24.8599 29.9656 24.7189 30C23.0261 25.3157 21.2982 20.6659 19.6054 15.9816C19.5349 15.9816 19.4291 16.0161 19.3586 16.0161C19.3586 18.0482 19.2881 20.1148 19.3938 22.147C19.4291 23.2147 19.0412 23.5591 17.9832 23.4902C17.1722 23.4214 16.3611 23.4902 15.4089 23.4902C15.4089 25.6946 15.4089 27.7956 15.4089 29.8622C15.3031 29.8967 15.162 29.8967 15.0562 29.9311C13.3635 25.3157 11.6708 20.7003 9.97809 16.085C9.90756 16.085 9.80176 16.1194 9.73123 16.1194C9.73123 18.1171 9.6607 20.1148 9.7665 22.0781C9.80176 23.1803 9.48438 23.5247 8.32063 23.5247C5.67575 23.4558 5.67575 23.5247 5.67575 26.0735C5.67575 27.2101 5.67575 28.3812 5.64049 29.5178C5.64049 29.5867 5.56996 29.6556 5.49943 29.8278C5.35837 29.6556 5.21731 29.5178 5.14678 29.38C3.48932 24.9024 1.83187 20.4248 0.24494 15.9127C0.068615 15.3961 0.03335 14.7072 0.209675 14.225C1.83187 9.5752 3.52459 4.99426 5.21731 0.413318C5.25257 0.275545 5.35837 0.172216 5.4289 0.0344432C5.49943 0.0344432 5.60522 0.0688863 5.67575 0.0688863Z" fill="#0E0E0D"/>
</svg>
