<svg width="30" height="30" viewBox="0 0 30 30" fill="none" xmlns="http://www.w3.org/2000/svg">
<path fill-rule="evenodd" clip-rule="evenodd" d="M3 13.5004C3 7.7012 7.7012 3 13.5004 3C19.2996 3 24.0008 7.7012 24.0008 13.5004C24.0008 16.3288 22.8826 18.896 21.0641 20.784C21.0123 20.8237 20.9625 20.8673 20.9151 20.9147C20.8676 20.9621 20.824 21.0119 20.7843 21.0638C18.8963 22.8824 16.3289 24.0008 13.5004 24.0008C7.7012 24.0008 3 19.2996 3 13.5004ZM21.9274 24.0484C19.6178 25.896 16.6881 27.0008 13.5004 27.0008C6.04434 27.0008 0 20.9565 0 13.5004C0 6.04434 6.04434 0 13.5004 0C20.9565 0 27.0008 6.04434 27.0008 13.5004C27.0008 16.688 25.8961 19.6175 24.0487 21.927L29.5616 27.4399C30.1474 28.0257 30.1474 28.9755 29.5616 29.5612C28.9758 30.147 28.0261 30.147 27.4403 29.5612L21.9274 24.0484Z" fill="#0E0E0D"/>
</svg>
