<svg width="113" height="112" viewBox="0 0 113 112" fill="none" xmlns="http://www.w3.org/2000/svg">
<path d="M77.4247 41.9335C77.4247 47.4943 75.2157 52.8273 71.2837 56.7593C67.3517 60.6913 62.0187 62.9003 56.458 62.9003C50.8972 62.9003 45.5643 60.6913 41.6322 56.7593C37.7002 52.8273 35.4912 47.4943 35.4912 41.9335C35.4912 36.3728 37.7002 31.0398 41.6322 27.1078C45.5643 23.1758 50.8972 20.9668 56.458 20.9668C62.0187 20.9668 67.3517 23.1758 71.2837 27.1078C75.2157 31.0398 77.4247 36.3728 77.4247 41.9335Z" fill="black"/>
<path fill-rule="evenodd" clip-rule="evenodd" d="M0.546875 55.9113C0.546875 41.0827 6.43752 26.8615 16.9229 16.3761C27.4083 5.89064 41.6296 0 56.4582 0C71.2868 0 85.5081 5.89064 95.9935 16.3761C106.479 26.8615 112.37 41.0827 112.37 55.9113C112.37 70.7399 106.479 84.9612 95.9935 95.4466C85.5081 105.932 71.2868 111.823 56.4582 111.823C41.6296 111.823 27.4083 105.932 16.9229 95.4466C6.43752 84.9612 0.546875 70.7399 0.546875 55.9113ZM56.4582 6.98892C47.2453 6.98941 38.2197 9.59133 30.4203 14.4952C22.6209 19.3991 16.3648 26.4056 12.3719 34.7083C8.37897 43.011 6.81165 52.2725 7.85028 61.4267C8.88892 70.5809 12.4913 79.2558 18.2428 86.4529C23.2049 78.4576 34.1286 69.8892 56.4582 69.8892C78.7878 69.8892 89.7045 78.4506 94.6736 86.4529C100.425 79.2558 104.027 70.5809 105.066 61.4267C106.105 52.2725 104.537 43.011 100.545 34.7083C96.5516 26.4056 90.2955 19.3991 82.4961 14.4952C74.6967 9.59133 65.6712 6.98941 56.4582 6.98892Z" fill="black"/>
</svg>
