<svg width="40" height="40" viewBox="0 0 40 40" fill="none" xmlns="http://www.w3.org/2000/svg">
<path fill-rule="evenodd" clip-rule="evenodd" d="M20 40C31.0457 40 40 31.0457 40 20C40 8.9543 31.0457 0 20 0C8.9543 0 0 8.9543 0 20C0 31.0457 8.9543 40 20 40ZM28.2738 12.0099C28.8596 12.5957 28.8596 13.5454 28.2738 14.1312L22.2632 20.1418L28.2738 26.1525C28.8596 26.7383 28.8596 27.688 28.2738 28.2738C27.688 28.8596 26.7383 28.8596 26.1525 28.2738L20.1419 22.2632L14.1317 28.2734C13.5459 28.8591 12.5962 28.8591 12.0104 28.2734C11.4246 27.6876 11.4246 26.7378 12.0104 26.152L18.0206 20.1418L12.0104 14.1317C11.4246 13.5459 11.4246 12.5961 12.0104 12.0103C12.5962 11.4246 13.5459 11.4246 14.1317 12.0103L20.1419 18.0205L26.1525 12.0099C26.7383 11.4241 27.688 11.4241 28.2738 12.0099Z" fill="#0E0E0D"/>
</svg>
