<svg width="30" height="18" viewBox="0 0 30 18" fill="none" xmlns="http://www.w3.org/2000/svg">
<path fill-rule="evenodd" clip-rule="evenodd" d="M0.148417 8.34093C6.02056 -0.699753 20.4871 -4.68966 29.8171 8.35553C30.0515 8.68321 30.0617 9.12816 29.8305 9.45806C23.9909 17.7896 10.6874 22.9159 0.20619 9.44738C-0.0422235 9.12817 -0.0719079 8.68014 0.148417 8.34093ZM19.3334 8.8689C19.3334 11.2629 17.3927 13.2036 14.9987 13.2036C12.6046 13.2036 10.6639 11.2629 10.6639 8.8689C10.6639 6.47488 12.6046 4.53415 14.9987 4.53415C17.3927 4.53415 19.3334 6.47488 19.3334 8.8689ZM21.3334 8.8689C21.3334 12.3675 18.4972 15.2036 14.9987 15.2036C11.5001 15.2036 8.66392 12.3675 8.66392 8.8689C8.66392 5.37032 11.5001 2.53415 14.9987 2.53415C18.4972 2.53415 21.3334 5.37032 21.3334 8.8689Z" fill="#0E0E0D"/>
</svg>
