<svg width="83" height="88" viewBox="0 0 83 88" fill="none" xmlns="http://www.w3.org/2000/svg">
<path d="M66.4056 86.9001C66.4056 81.9001 66.2057 76.9001 66.5057 71.9001C66.6057 69.1001 65.5057 68.4001 62.9057 68.4001C54.9057 68.4001 54.9057 68.3001 54.9057 60.4001C54.9057 55.9001 54.9057 51.5001 54.3057 46.9001C49.5057 60.2001 44.6056 73.7001 39.8056 87.1001C39.5056 87.1001 39.2057 87.0001 38.9057 87.0001C38.9057 82.0001 38.7057 77.0001 39.0057 72.0001C39.1056 69.0001 38.1056 68.1001 35.3057 68.4001C32.9056 68.6001 30.5057 68.4001 27.8057 68.4001C27.8057 60.9001 27.8057 53.9001 27.8057 46.9001C27.5057 46.8001 27.2057 46.8001 26.9057 46.7001C22.1057 60.1001 17.3056 73.6001 12.4056 87.1001C12.1056 87.1001 11.9057 87.1001 11.6057 87.1001C11.5057 86.0001 11.4056 84.9001 11.4056 83.7001C11.4056 79.9001 11.2057 76.1001 11.4056 72.3001C11.6056 69.3001 10.7057 68.0001 7.60565 68.3001C5.20565 68.5001 2.80565 68.3001 0.105653 68.3001C0.105654 62.4001 0.305661 29.4001 0.005659 22.8001C-0.0943392 19.5001 1.10566 18.5001 4.20566 18.8001C6.40565 19.0001 8.60566 18.8001 11.3057 18.8001C11.3057 12.4001 11.3057 6.30009 11.3057 0.20009C11.7057 0.100091 12.0057 0.100092 12.4057 9.30775e-05C17.2057 13.6001 22.1057 27.1001 26.9057 40.7001C27.1057 40.7001 27.4057 40.6001 27.6057 40.6001C27.6057 34.7001 27.8057 28.7001 27.5057 22.8001C27.4057 19.7001 28.5057 18.7001 31.5057 18.9001C33.8057 19.1001 36.1057 18.9001 38.8057 18.9001C38.8057 12.5001 38.8057 6.4001 38.8057 0.400097C39.1057 0.300098 39.5057 0.300091 39.8057 0.200092C44.6057 13.6001 49.4057 27.0001 54.2057 40.4001C54.4057 40.4001 54.7057 40.3001 54.9057 40.3001C54.9057 34.5001 55.1057 28.7001 54.8057 23.0001C54.7057 19.8001 55.6057 18.8001 58.9057 18.8001C66.4057 19.0001 66.4057 18.8001 66.4057 11.4001C66.4057 8.1001 66.4057 4.7001 66.5057 1.4001C66.5057 1.2001 66.7057 1.0001 66.9057 0.500098C67.3057 1.0001 67.7057 1.40009 67.9057 1.80009C72.6057 14.8001 77.3057 27.8001 81.8057 40.9001C82.3057 42.4001 82.4057 44.4001 81.9057 45.8001C77.3057 59.3001 72.5057 72.6001 67.7056 85.9001C67.6056 86.3001 67.3056 86.6001 67.1056 87.0001C66.9056 87.0001 66.6056 86.9001 66.4056 86.9001Z" fill="#0E0E0D"/>
</svg>
