<svg width="73" height="77" viewBox="0 0 73 77" fill="none" xmlns="http://www.w3.org/2000/svg">
<path d="M21.0965 52.6944C29.7842 51.8723 35.8441 40.82 34.6318 28.0084C33.4194 15.1968 25.3938 5.47736 16.7061 6.29949C8.01836 7.12162 1.95842 18.174 3.1708 30.9856C4.38318 43.7972 12.4088 53.5166 21.0965 52.6944Z" fill="#FBFBFB" stroke="black" stroke-width="6" stroke-miterlimit="10"/>
<path d="M51.3996 49.6C60.1257 49.6 67.1996 39.1682 67.1996 26.3C67.1996 13.4318 60.1257 3 51.3996 3C42.6735 3 35.5996 13.4318 35.5996 26.3C35.5996 39.1682 42.6735 49.6 51.3996 49.6Z" fill="#FBFBFB" stroke="black" stroke-width="6" stroke-miterlimit="10"/>
<path d="M2.19922 23.3996C2.19922 23.3996 20.6992 28.9996 32.1992 20.0996Z" fill="#FBFBFB"/>
<path d="M2.19922 23.3996C2.19922 23.3996 20.6992 28.9996 32.1992 20.0996" stroke="black" stroke-width="6" stroke-miterlimit="10"/>
<path d="M36.6992 20.2004C36.6992 20.2004 55.1992 25.8004 66.6992 16.9004Z" fill="#FBFBFB"/>
<path d="M36.6992 20.2004C36.6992 20.2004 55.1992 25.8004 66.6992 16.9004" stroke="black" stroke-width="6" stroke-miterlimit="10"/>
<path d="M17.2429 53.1332C22.7568 52.2904 26.2661 45.3227 25.0811 37.5704C23.8961 29.8182 18.4656 24.217 12.9516 25.0598C7.4377 25.9027 3.9284 32.8704 5.11339 40.6226C6.29839 48.3749 11.7289 53.9761 17.2429 53.1332Z" fill="black"/>
<path d="M49.8415 49.933C55.3554 49.0902 58.8647 42.1225 57.6797 34.3702C56.4947 26.618 51.0642 21.0168 45.5503 21.8596C40.0363 22.7025 36.527 29.6702 37.712 37.4224C38.897 45.1747 44.3276 50.7759 49.8415 49.933Z" fill="black"/>
<path d="M69.5441 63.9722C69.5441 63.9722 64.4529 63.6728 62.5387 68.9696C62.5387 68.9696 56.4313 58.6934 38.6151 58.4472C26.9353 59.4633 19.6949 61.6421 15.0208 71.2843C15.0208 71.2843 11.8086 66.2872 7.28118 66.622" stroke="black" stroke-width="5" stroke-miterlimit="10" stroke-linecap="round" stroke-linejoin="round"/>
</svg>
