<svg width="64" height="76" viewBox="0 0 64 76" fill="none" xmlns="http://www.w3.org/2000/svg">
<g filter="url(#filter0_d_72_210)">
<path d="M58.3636 28.1818C58.3636 48.5455 32.1818 66 32.1818 66C32.1818 66 6 48.5455 6 28.1818C6 21.238 8.75843 14.5785 13.6685 9.66848C18.5785 4.75843 25.238 2 32.1818 2C39.1257 2 45.7851 4.75843 50.6952 9.66848C55.6052 14.5785 58.3636 21.238 58.3636 28.1818Z" fill="white"/>
<path d="M58.3636 28.1818C58.3636 48.5455 32.1818 66 32.1818 66C32.1818 66 6 48.5455 6 28.1818C6 21.238 8.75843 14.5785 13.6685 9.66848C18.5785 4.75843 25.238 2 32.1818 2C39.1257 2 45.7851 4.75843 50.6952 9.66848C55.6052 14.5785 58.3636 21.238 58.3636 28.1818Z" stroke="black" stroke-width="3" stroke-linecap="round" stroke-linejoin="round"/>
</g>
<path d="M33.2725 43.0958C31.9164 43.0958 30.6285 42.8836 29.4088 42.4594C28.1967 42.0276 27.1209 41.3496 26.1815 40.4253C25.2421 39.5011 24.5035 38.2965 23.9656 36.8117C23.4353 35.3268 23.174 33.5276 23.1815 31.414C23.1891 29.5276 23.4315 27.8306 23.9088 26.323C24.3937 24.8155 25.0793 23.5314 25.9656 22.4708C26.8596 21.4102 27.9278 20.5996 29.1702 20.0389C30.4126 19.4708 31.7952 19.1867 33.3179 19.1867C35.03 19.1867 36.5376 19.5162 37.8406 20.1753C39.1437 20.8344 40.1815 21.717 40.9543 22.823C41.7346 23.9215 42.1891 25.1336 42.3179 26.4594H36.0906C35.9467 25.8003 35.6134 25.3193 35.0906 25.0162C34.5755 24.7056 33.9846 24.5503 33.3179 24.5503C31.9921 24.5503 31.0187 25.1261 30.3975 26.2776C29.7838 27.4291 29.4694 28.9443 29.4543 30.823H29.5906C29.8861 30.1109 30.3331 29.5011 30.9315 28.9935C31.53 28.4859 32.227 28.0958 33.0225 27.823C33.8179 27.5503 34.6588 27.414 35.5452 27.414C36.9543 27.414 38.1853 27.7321 39.2384 28.3685C40.299 29.0049 41.1247 29.8761 41.7156 30.9821C42.3065 32.0882 42.5982 33.3533 42.5906 34.7776C42.5982 36.4443 42.2043 37.9026 41.4088 39.1526C40.6209 40.4026 39.5262 41.3723 38.1247 42.0617C36.7232 42.7511 35.1058 43.0958 33.2725 43.0958ZM33.227 38.323C33.8558 38.323 34.4126 38.1791 34.8975 37.8912C35.3899 37.6033 35.7725 37.2094 36.0452 36.7094C36.3255 36.2094 36.4618 35.6412 36.4543 35.0049C36.4618 34.3609 36.3255 33.7927 36.0452 33.3003C35.7725 32.8003 35.3899 32.4064 34.8975 32.1185C34.4126 31.8306 33.8558 31.6867 33.227 31.6867C32.7649 31.6867 32.3368 31.77 31.9429 31.9367C31.5565 32.0958 31.2194 32.3268 30.9315 32.6299C30.6437 32.9253 30.4164 33.2776 30.2497 33.6867C30.0906 34.0882 30.0073 34.5276 29.9997 35.0049C30.0073 35.6412 30.1512 36.2094 30.4315 36.7094C30.7118 37.2094 31.0944 37.6033 31.5793 37.8912C32.0641 38.1791 32.6134 38.323 33.227 38.323Z" fill="black"/>
<defs>
<filter id="filter0_d_72_210" x="0.5" y="0.5" width="63.3636" height="75" filterUnits="userSpaceOnUse" color-interpolation-filters="sRGB">
<feFlood flood-opacity="0" result="BackgroundImageFix"/>
<feColorMatrix in="SourceAlpha" type="matrix" values="0 0 0 0 0 0 0 0 0 0 0 0 0 0 0 0 0 0 127 0" result="hardAlpha"/>
<feOffset dy="4"/>
<feGaussianBlur stdDeviation="2"/>
<feComposite in2="hardAlpha" operator="out"/>
<feColorMatrix type="matrix" values="0 0 0 0 0 0 0 0 0 0 0 0 0 0 0 0 0 0 0.25 0"/>
<feBlend mode="normal" in2="BackgroundImageFix" result="effect1_dropShadow_72_210"/>
<feBlend mode="normal" in="SourceGraphic" in2="effect1_dropShadow_72_210" result="shape"/>
</filter>
</defs>
</svg>
