<svg width="64" height="76" viewBox="0 0 64 76" fill="none" xmlns="http://www.w3.org/2000/svg">
<g filter="url(#filter0_d_72_203)">
<path d="M58.3636 28.1818C58.3636 48.5455 32.1818 66 32.1818 66C32.1818 66 6 48.5455 6 28.1818C6 21.238 8.75843 14.5785 13.6685 9.66848C18.5785 4.75843 25.238 2 32.1818 2C39.1257 2 45.7851 4.75843 50.6952 9.66848C55.6052 14.5785 58.3636 21.238 58.3636 28.1818Z" fill="white" stroke="black" stroke-width="3" stroke-linecap="round" stroke-linejoin="round"/>
<path d="M32.6361 43.0958C30.8028 43.0958 29.174 42.7814 27.7497 42.1526C26.3331 41.5162 25.2194 40.6412 24.4088 39.5276C23.5982 38.414 23.1891 37.1336 23.1815 35.6867H29.5452C29.5528 36.1336 29.6891 36.5352 29.9543 36.8912C30.227 37.2397 30.5982 37.5124 31.0679 37.7094C31.5376 37.9064 32.0755 38.0049 32.6815 38.0049C33.2649 38.0049 33.78 37.9026 34.227 37.698C34.674 37.4859 35.0225 37.1943 35.2725 36.823C35.5225 36.4518 35.6437 36.0276 35.6361 35.5503C35.6437 35.0806 35.4997 34.664 35.2043 34.3003C34.9164 33.9367 34.5111 33.6526 33.9884 33.448C33.4656 33.2435 32.8634 33.1412 32.1815 33.1412H29.8179V28.7776H32.1815C32.8103 28.7776 33.3634 28.6753 33.8406 28.4708C34.3255 28.2662 34.7005 27.9821 34.9656 27.6185C35.2384 27.2549 35.3709 26.8382 35.3634 26.3685C35.3709 25.914 35.2611 25.5124 35.0338 25.164C34.8065 24.8155 34.4884 24.5427 34.0793 24.3458C33.6778 24.1488 33.2118 24.0503 32.6815 24.0503C32.1058 24.0503 31.5906 24.1526 31.1361 24.3571C30.6891 24.5617 30.3368 24.8458 30.0793 25.2094C29.8217 25.573 29.6891 25.9897 29.6815 26.4594H23.6361C23.6437 25.0352 24.0338 23.7776 24.8065 22.6867C25.5868 21.5958 26.655 20.7397 28.0111 20.1185C29.3671 19.4973 30.924 19.1867 32.6815 19.1867C34.4012 19.1867 35.9202 19.4783 37.2384 20.0617C38.5641 20.645 39.5982 21.448 40.3406 22.4708C41.0906 23.4859 41.4618 24.6488 41.4543 25.9594C41.4694 27.2624 41.0225 28.3306 40.1134 29.164C39.2118 29.9973 38.0679 30.4897 36.6815 30.6412V30.823C38.5603 31.0276 39.9732 31.6033 40.9202 32.5503C41.8672 33.4897 42.3331 34.6715 42.3179 36.0958C42.3255 37.4594 41.9164 38.6677 41.0906 39.7208C40.2725 40.7738 39.1323 41.5996 37.6702 42.198C36.2156 42.7965 34.5376 43.0958 32.6361 43.0958Z" fill="black"/>
</g>
<defs>
<filter id="filter0_d_72_203" x="0.5" y="0.5" width="63.3636" height="75" filterUnits="userSpaceOnUse" color-interpolation-filters="sRGB">
<feFlood flood-opacity="0" result="BackgroundImageFix"/>
<feColorMatrix in="SourceAlpha" type="matrix" values="0 0 0 0 0 0 0 0 0 0 0 0 0 0 0 0 0 0 127 0" result="hardAlpha"/>
<feOffset dy="4"/>
<feGaussianBlur stdDeviation="2"/>
<feComposite in2="hardAlpha" operator="out"/>
<feColorMatrix type="matrix" values="0 0 0 0 0 0 0 0 0 0 0 0 0 0 0 0 0 0 0.25 0"/>
<feBlend mode="normal" in2="BackgroundImageFix" result="effect1_dropShadow_72_203"/>
<feBlend mode="normal" in="SourceGraphic" in2="effect1_dropShadow_72_203" result="shape"/>
</filter>
</defs>
</svg>
