<svg width="64" height="76" viewBox="0 0 64 76" fill="none" xmlns="http://www.w3.org/2000/svg">
<g filter="url(#filter0_d_72_204)">
<path d="M58.3636 28.1818C58.3636 48.5455 32.1818 66 32.1818 66C32.1818 66 6 48.5455 6 28.1818C6 21.238 8.75843 14.5785 13.6685 9.66848C18.5785 4.75843 25.238 2 32.1818 2C39.1257 2 45.7851 4.75843 50.6952 9.66848C55.6052 14.5785 58.3636 21.238 58.3636 28.1818Z" fill="white" stroke="black" stroke-width="3" stroke-linecap="round" stroke-linejoin="round"/>
<path d="M32.8633 43.0958C31.0755 43.0958 29.4883 42.7814 28.102 42.1526C26.7232 41.5162 25.6361 40.6412 24.8406 39.5276C24.0527 38.414 23.6512 37.1336 23.6361 35.6867H29.7724C29.7951 36.4897 30.1058 37.1299 30.7042 37.6071C31.3103 38.0844 32.03 38.323 32.8633 38.323C33.5073 38.323 34.0755 38.1867 34.5679 37.914C35.0603 37.6336 35.4467 37.2397 35.727 36.7321C36.0073 36.2246 36.1436 35.6336 36.1361 34.9594C36.1436 34.2776 36.0073 33.6867 35.727 33.1867C35.4467 32.6791 35.0603 32.289 34.5679 32.0162C34.0755 31.7359 33.5073 31.5958 32.8633 31.5958C32.1967 31.5958 31.5792 31.7586 31.0111 32.0844C30.4505 32.4026 30.0376 32.8458 29.7724 33.414L24.227 32.323L25.1361 19.5049H40.7724V24.5503H30.3179L29.8633 29.6867H29.9997C30.3633 28.9821 30.9921 28.3988 31.8861 27.9367C32.78 27.467 33.8179 27.2321 34.9997 27.2321C36.3861 27.2321 37.6209 27.5541 38.7042 28.198C39.7952 28.842 40.655 29.7321 41.2838 30.8685C41.9201 31.9973 42.2345 33.3003 42.227 34.7776C42.2345 36.3988 41.8482 37.8382 41.0679 39.0958C40.2952 40.3458 39.208 41.3268 37.8065 42.039C36.405 42.7435 34.7573 43.0958 32.8633 43.0958Z" fill="black"/>
</g>
<defs>
<filter id="filter0_d_72_204" x="0.5" y="0.5" width="63.3636" height="75" filterUnits="userSpaceOnUse" color-interpolation-filters="sRGB">
<feFlood flood-opacity="0" result="BackgroundImageFix"/>
<feColorMatrix in="SourceAlpha" type="matrix" values="0 0 0 0 0 0 0 0 0 0 0 0 0 0 0 0 0 0 127 0" result="hardAlpha"/>
<feOffset dy="4"/>
<feGaussianBlur stdDeviation="2"/>
<feComposite in2="hardAlpha" operator="out"/>
<feColorMatrix type="matrix" values="0 0 0 0 0 0 0 0 0 0 0 0 0 0 0 0 0 0 0.25 0"/>
<feBlend mode="normal" in2="BackgroundImageFix" result="effect1_dropShadow_72_204"/>
<feBlend mode="normal" in="SourceGraphic" in2="effect1_dropShadow_72_204" result="shape"/>
</filter>
</defs>
</svg>
