<svg width="64" height="76" viewBox="0 0 64 76" fill="none" xmlns="http://www.w3.org/2000/svg">
<g filter="url(#filter0_d_72_212)">
<path d="M58.3636 28.1818C58.3636 48.5455 32.1818 66 32.1818 66C32.1818 66 6 48.5455 6 28.1818C6 21.238 8.75843 14.5785 13.6685 9.66848C18.5785 4.75843 25.238 2 32.1818 2C39.1257 2 45.7851 4.75843 50.6952 9.66848C55.6052 14.5785 58.3636 21.238 58.3636 28.1818Z" fill="white"/>
<path d="M58.3636 28.1818C58.3636 48.5455 32.1818 66 32.1818 66C32.1818 66 6 48.5455 6 28.1818C6 21.238 8.75843 14.5785 13.6685 9.66848C18.5785 4.75843 25.238 2 32.1818 2C39.1257 2 45.7851 4.75843 50.6952 9.66848C55.6052 14.5785 58.3636 21.238 58.3636 28.1818Z" stroke="black" stroke-width="3" stroke-linecap="round" stroke-linejoin="round"/>
</g>
<path d="M33.0452 43.0958C31.1664 43.0958 29.4884 42.8041 28.0111 42.2208C26.5414 41.6374 25.3823 40.8458 24.5338 39.8458C23.6929 38.8458 23.2725 37.717 23.2725 36.4594C23.2725 35.4973 23.5111 34.6185 23.9884 33.823C24.4732 33.0276 25.1247 32.3685 25.9429 31.8458C26.7611 31.3155 27.674 30.9746 28.6815 30.823V30.6412C27.3558 30.414 26.2649 29.8268 25.4088 28.8799C24.5603 27.9253 24.1361 26.8003 24.1361 25.5049C24.1361 24.2852 24.5225 23.2018 25.2952 22.2549C26.0679 21.3003 27.1247 20.5503 28.4656 20.0049C29.8065 19.4594 31.3331 19.1867 33.0452 19.1867C34.7573 19.1867 36.2838 19.4632 37.6247 20.0162C38.9656 20.5617 40.0225 21.3117 40.7952 22.2662C41.5679 23.2132 41.9543 24.2927 41.9543 25.5049C41.9543 26.8079 41.5225 27.9329 40.6588 28.8799C39.7952 29.8268 38.7118 30.414 37.4088 30.6412V30.823C38.4088 30.9746 39.3179 31.3155 40.1361 31.8458C40.9543 32.3685 41.6058 33.0276 42.0906 33.823C42.5755 34.6185 42.8179 35.4973 42.8179 36.4594C42.8179 37.717 42.3937 38.8458 41.5452 39.8458C40.7043 40.8458 39.5452 41.6374 38.0679 42.2208C36.5982 42.8041 34.924 43.0958 33.0452 43.0958ZM33.0452 38.7321C33.6437 38.7321 34.174 38.6109 34.6361 38.3685C35.0982 38.1261 35.4618 37.7927 35.727 37.3685C35.9997 36.9367 36.1361 36.4518 36.1361 35.914C36.1361 35.3761 35.9997 34.8988 35.727 34.4821C35.4618 34.0655 35.0982 33.7397 34.6361 33.5049C34.174 33.2624 33.6437 33.1412 33.0452 33.1412C32.4543 33.1412 31.924 33.2624 31.4543 33.5049C30.9921 33.7397 30.6247 34.0655 30.352 34.4821C30.0868 34.8988 29.9543 35.3761 29.9543 35.914C29.9543 36.4518 30.0868 36.9329 30.352 37.3571C30.6247 37.7814 30.9921 38.1185 31.4543 38.3685C31.924 38.6109 32.4543 38.7321 33.0452 38.7321ZM33.0452 28.7776C33.5755 28.7776 34.0452 28.6677 34.4543 28.448C34.8634 28.2283 35.1853 27.9253 35.4202 27.539C35.655 27.1526 35.7725 26.717 35.7725 26.2321C35.7725 25.7473 35.655 25.3193 35.4202 24.948C35.1853 24.5693 34.8634 24.2738 34.4543 24.0617C34.0452 23.842 33.5755 23.7321 33.0452 23.7321C32.5225 23.7321 32.0528 23.842 31.6361 24.0617C31.227 24.2738 30.905 24.5693 30.6702 24.948C30.4353 25.3193 30.3179 25.7473 30.3179 26.2321C30.3179 26.717 30.4353 27.1526 30.6702 27.539C30.905 27.9177 31.227 28.2208 31.6361 28.448C32.0528 28.6677 32.5225 28.7776 33.0452 28.7776Z" fill="black"/>
<defs>
<filter id="filter0_d_72_212" x="0.5" y="0.5" width="63.3636" height="75" filterUnits="userSpaceOnUse" color-interpolation-filters="sRGB">
<feFlood flood-opacity="0" result="BackgroundImageFix"/>
<feColorMatrix in="SourceAlpha" type="matrix" values="0 0 0 0 0 0 0 0 0 0 0 0 0 0 0 0 0 0 127 0" result="hardAlpha"/>
<feOffset dy="4"/>
<feGaussianBlur stdDeviation="2"/>
<feComposite in2="hardAlpha" operator="out"/>
<feColorMatrix type="matrix" values="0 0 0 0 0 0 0 0 0 0 0 0 0 0 0 0 0 0 0.25 0"/>
<feBlend mode="normal" in2="BackgroundImageFix" result="effect1_dropShadow_72_212"/>
<feBlend mode="normal" in="SourceGraphic" in2="effect1_dropShadow_72_212" result="shape"/>
</filter>
</defs>
</svg>
