<svg width="182" height="181" viewBox="0 0 182 181" fill="none" xmlns="http://www.w3.org/2000/svg">
<g clip-path="url(#clip0_106_1625)">
<path d="M125.054 67.6991C125.054 76.6766 121.487 85.2864 115.139 91.6344C108.791 97.9824 100.181 101.549 91.204 101.549C82.2266 101.549 73.6168 97.9824 67.2688 91.6344C60.9208 85.2864 57.3545 76.6766 57.3545 67.6991C57.3545 58.7217 60.9208 50.1119 67.2688 43.7639C73.6168 37.4159 82.2266 33.8496 91.204 33.8496C100.181 33.8496 108.791 37.4159 115.139 43.7639C121.487 50.1119 125.054 58.7217 125.054 67.6991Z" fill="black"/>
<path fill-rule="evenodd" clip-rule="evenodd" d="M0.938477 90.2654C0.938477 66.3256 10.4486 43.3662 27.3766 26.4381C44.3047 9.51008 67.264 0 91.2039 0C115.144 0 138.103 9.51008 155.031 26.4381C171.959 43.3662 181.469 66.3256 181.469 90.2654C181.469 114.205 171.959 137.165 155.031 154.093C138.103 171.021 115.144 180.531 91.2039 180.531C67.264 180.531 44.3047 171.021 27.3766 154.093C10.4486 137.165 0.938477 114.205 0.938477 90.2654ZM91.2039 11.2832C76.3302 11.284 61.7589 15.4846 49.1673 23.4016C36.5757 31.3186 26.4755 42.6302 20.0292 56.0345C13.5829 69.4387 11.0526 84.3907 12.7294 99.1696C14.4062 113.949 20.222 127.954 29.5075 139.573C37.5185 126.665 55.1542 112.832 91.2039 112.832C127.254 112.832 144.878 126.654 152.9 139.573C162.186 127.954 168.002 113.949 169.678 99.1696C171.355 84.3907 168.825 69.4387 162.379 56.0345C155.932 42.6302 145.832 31.3186 133.24 23.4016C120.649 15.4846 106.078 11.284 91.2039 11.2832Z" fill="black"/>
</g>
<defs>
<clipPath id="clip0_106_1625">
<rect width="180.531" height="180.531" fill="white" transform="translate(0.938477)"/>
</clipPath>
</defs>
</svg>
