<svg width="64" height="76" viewBox="0 0 64 76" fill="none" xmlns="http://www.w3.org/2000/svg">
<g filter="url(#filter0_d_74_192)">
<path d="M58.3636 28.1818C58.3636 48.5455 32.1818 66 32.1818 66C32.1818 66 6 48.5455 6 28.1818C6 21.238 8.75843 14.5785 13.6685 9.66848C18.5785 4.75843 25.238 2 32.1818 2C39.1257 2 45.7851 4.75843 50.6952 9.66848C55.6052 14.5785 58.3636 21.238 58.3636 28.1818Z" fill="#F2F2F3"/>
<path d="M58.3636 28.1818L59.8636 28.1818V28.1818L58.3636 28.1818ZM32.1818 66L31.3498 67.2481C31.8536 67.584 32.51 67.584 33.0139 67.2481L32.1818 66ZM6 28.1818L4.5 28.1818V28.1818H6ZM32.1818 2V3.5V2ZM56.8636 28.1818C56.8636 37.7607 50.6696 46.8496 44.1838 53.6957C40.9716 57.0863 37.7543 59.8573 35.3383 61.7811C34.1316 62.7421 33.1278 63.4892 32.4286 63.9942C32.0791 64.2466 31.8059 64.4384 31.6218 64.5659C31.5298 64.6296 31.46 64.6773 31.4141 64.7085C31.3912 64.724 31.3742 64.7355 31.3634 64.7428C31.358 64.7464 31.3542 64.749 31.3519 64.7505C31.3508 64.7513 31.35 64.7518 31.3496 64.752C31.3495 64.7521 31.3495 64.7521 31.3494 64.7522C31.3495 64.7521 31.3498 64.7519 32.1818 66C33.0139 67.2481 33.0143 67.2478 33.0148 67.2474C33.0151 67.2472 33.0158 67.2468 33.0164 67.2464C33.0176 67.2456 33.0193 67.2445 33.0213 67.2431C33.0253 67.2404 33.031 67.2366 33.0382 67.2318C33.0525 67.2221 33.0731 67.2082 33.0997 67.1902C33.1529 67.154 33.2302 67.1012 33.3299 67.0321C33.5293 66.894 33.8187 66.6909 34.1851 66.4262C34.9177 65.8971 35.9594 65.1216 37.2071 64.128C39.7003 62.1427 43.0284 59.2773 46.3617 55.7589C52.9668 48.7868 59.8636 38.9665 59.8636 28.1818H56.8636ZM32.1818 66C33.0139 64.7519 33.0141 64.7521 33.0142 64.7522C33.0141 64.7521 33.0142 64.7521 33.014 64.752C33.0136 64.7518 33.0129 64.7513 33.0117 64.7505C33.0095 64.749 33.0056 64.7464 33.0002 64.7428C32.9894 64.7355 32.9724 64.724 32.9495 64.7085C32.9036 64.6773 32.8339 64.6296 32.7418 64.5659C32.5577 64.4384 32.2846 64.2466 31.9351 63.9942C31.2359 63.4892 30.2321 62.7421 29.0253 61.7811C26.6094 59.8573 23.3921 57.0863 20.1798 53.6957C13.6941 46.8496 7.5 37.7607 7.5 28.1818H4.5C4.5 38.9665 11.3968 48.7868 18.002 55.7589C21.3352 59.2773 24.6634 62.1427 27.1565 64.128C28.4043 65.1216 29.4459 65.8971 30.1786 66.4262C30.545 66.6909 30.8343 66.894 31.0337 67.0321C31.1335 67.1012 31.2107 67.154 31.2639 67.1902C31.2905 67.2082 31.3111 67.2221 31.3255 67.2318C31.3327 67.2366 31.3383 67.2404 31.3424 67.2431C31.3444 67.2445 31.346 67.2456 31.3473 67.2464C31.3479 67.2468 31.3485 67.2472 31.3488 67.2474C31.3493 67.2478 31.3498 67.2481 32.1818 66ZM7.5 28.1818C7.5 21.6358 10.1004 15.3579 14.7291 10.7291L12.6078 8.60782C7.41647 13.7992 4.5 20.8401 4.5 28.1818L7.5 28.1818ZM14.7291 10.7291C19.3579 6.1004 25.6358 3.5 32.1818 3.5V0.5C24.8401 0.5 17.7992 3.41647 12.6078 8.60782L14.7291 10.7291ZM32.1818 3.5C38.7278 3.5 45.0058 6.1004 49.6345 10.7291L51.7558 8.60782C46.5645 3.41647 39.5235 0.5 32.1818 0.5V3.5ZM49.6345 10.7291C54.2632 15.3579 56.8636 21.6358 56.8636 28.1818L59.8636 28.1818C59.8636 20.8401 56.9472 13.7992 51.7558 8.60782L49.6345 10.7291Z" fill="black"/>
</g>
<path d="M33.0454 44.3182C31.1666 44.3182 29.4886 44.0265 28.0113 43.4432C26.5416 42.8598 25.3825 42.0682 24.534 41.0682C23.6931 40.0682 23.2727 38.9394 23.2727 37.6818C23.2727 36.7197 23.5113 35.8409 23.9886 35.0455C24.4734 34.25 25.1249 33.5909 25.9431 33.0682C26.7613 32.5379 27.6742 32.197 28.6818 32.0455V31.8636C27.356 31.6364 26.2651 31.0492 25.409 30.1023C24.5605 29.1477 24.1363 28.0227 24.1363 26.7273C24.1363 25.5076 24.5227 24.4242 25.2954 23.4773C26.0681 22.5227 27.1249 21.7727 28.4658 21.2273C29.8068 20.6818 31.3333 20.4091 33.0454 20.4091C34.7575 20.4091 36.284 20.6856 37.6249 21.2386C38.9658 21.7841 40.0227 22.5341 40.7954 23.4886C41.5681 24.4356 41.9545 25.5152 41.9545 26.7273C41.9545 28.0303 41.5227 29.1553 40.659 30.1023C39.7954 31.0492 38.7121 31.6364 37.409 31.8636V32.0455C38.409 32.197 39.3181 32.5379 40.1363 33.0682C40.9545 33.5909 41.606 34.25 42.0908 35.0455C42.5757 35.8409 42.8181 36.7197 42.8181 37.6818C42.8181 38.9394 42.3939 40.0682 41.5454 41.0682C40.7045 42.0682 39.5454 42.8598 38.0681 43.4432C36.5984 44.0265 34.9242 44.3182 33.0454 44.3182ZM33.0454 39.9545C33.6439 39.9545 34.1742 39.8333 34.6363 39.5909C35.0984 39.3485 35.4621 39.0152 35.7272 38.5909C35.9999 38.1591 36.1363 37.6742 36.1363 37.1364C36.1363 36.5985 35.9999 36.1212 35.7272 35.7045C35.4621 35.2879 35.0984 34.9621 34.6363 34.7273C34.1742 34.4848 33.6439 34.3636 33.0454 34.3636C32.4545 34.3636 31.9242 34.4848 31.4545 34.7273C30.9924 34.9621 30.6249 35.2879 30.3522 35.7045C30.0871 36.1212 29.9545 36.5985 29.9545 37.1364C29.9545 37.6742 30.0871 38.1553 30.3522 38.5795C30.6249 39.0038 30.9924 39.3409 31.4545 39.5909C31.9242 39.8333 32.4545 39.9545 33.0454 39.9545ZM33.0454 30C33.5757 30 34.0454 29.8902 34.4545 29.6705C34.8636 29.4508 35.1855 29.1477 35.4204 28.7614C35.6552 28.375 35.7727 27.9394 35.7727 27.4545C35.7727 26.9697 35.6552 26.5417 35.4204 26.1705C35.1855 25.7917 34.8636 25.4962 34.4545 25.2841C34.0454 25.0644 33.5757 24.9545 33.0454 24.9545C32.5227 24.9545 32.053 25.0644 31.6363 25.2841C31.2272 25.4962 30.9052 25.7917 30.6704 26.1705C30.4355 26.5417 30.3181 26.9697 30.3181 27.4545C30.3181 27.9394 30.4355 28.375 30.6704 28.7614C30.9052 29.1402 31.2272 29.4432 31.6363 29.6705C32.053 29.8902 32.5227 30 33.0454 30Z" fill="black"/>
<defs>
<filter id="filter0_d_74_192" x="0.5" y="0.5" width="63.3636" height="75" filterUnits="userSpaceOnUse" color-interpolation-filters="sRGB">
<feFlood flood-opacity="0" result="BackgroundImageFix"/>
<feColorMatrix in="SourceAlpha" type="matrix" values="0 0 0 0 0 0 0 0 0 0 0 0 0 0 0 0 0 0 127 0" result="hardAlpha"/>
<feOffset dy="4"/>
<feGaussianBlur stdDeviation="2"/>
<feComposite in2="hardAlpha" operator="out"/>
<feColorMatrix type="matrix" values="0 0 0 0 0 0 0 0 0 0 0 0 0 0 0 0 0 0 0.25 0"/>
<feBlend mode="normal" in2="BackgroundImageFix" result="effect1_dropShadow_74_192"/>
<feBlend mode="normal" in="SourceGraphic" in2="effect1_dropShadow_74_192" result="shape"/>
</filter>
</defs>
</svg>
