<svg width="182" height="182" viewBox="0 0 182 182" fill="none" xmlns="http://www.w3.org/2000/svg">
<path d="M138.747 48.5244H43.2155C41.8079 48.5244 40.458 49.0836 39.4627 50.0789C38.4674 51.0742 37.9082 52.4241 37.9082 53.8317V128.134C37.9082 129.541 38.4674 130.891 39.4627 131.887C40.458 132.882 41.8079 133.441 43.2155 133.441H138.747C140.154 133.441 141.504 132.882 142.5 131.887C143.495 130.891 144.054 129.541 144.054 128.134V53.8317C144.054 52.4241 143.495 51.0742 142.5 50.0789C141.504 49.0836 140.154 48.5244 138.747 48.5244ZM133.439 106.905C129.217 106.905 125.167 108.582 122.181 111.568C119.195 114.554 117.518 118.604 117.518 122.827H64.4447C64.4447 118.604 62.7672 114.554 59.7813 111.568C56.7953 108.582 52.7455 106.905 48.5228 106.905V75.0609C52.7455 75.0609 56.7953 73.3834 59.7813 70.3975C62.7672 67.4115 64.4447 63.3617 64.4447 59.139H117.518C117.518 63.3617 119.195 67.4115 122.181 70.3975C125.167 73.3834 129.217 75.0609 133.439 75.0609V106.905Z" fill="black"/>
<path d="M90.9811 69.7539C79.2732 69.7539 69.752 79.2752 69.752 90.9831C69.752 102.691 79.2732 112.212 90.9811 112.212C102.689 112.212 112.21 102.691 112.21 90.9831C112.21 79.2752 102.689 69.7539 90.9811 69.7539ZM90.9811 101.598C85.1272 101.598 80.3665 96.837 80.3665 90.9831C80.3665 85.1291 85.1272 80.3685 90.9811 80.3685C96.8351 80.3685 101.596 85.1291 101.596 90.9831C101.596 96.837 96.8351 101.598 90.9811 101.598Z" fill="black"/>
<rect x="6" y="6" width="169.964" height="169.964" rx="84.9822" stroke="black" stroke-width="12"/>
</svg>
