<svg width="73" height="71" viewBox="0 0 73 71" fill="none" xmlns="http://www.w3.org/2000/svg">
<g clip-path="url(#clip0_106_1611)">
<path d="M21.0965 52.6944C29.7842 51.8723 35.8441 40.82 34.6318 28.0084C33.4194 15.1968 25.3938 5.47736 16.7061 6.29949C8.01836 7.12162 1.95842 18.174 3.1708 30.9856C4.38318 43.7972 12.4088 53.5166 21.0965 52.6944Z" fill="#FBFBFB" stroke="black" stroke-width="6" stroke-miterlimit="10"/>
<path d="M51.3996 49.6C60.1257 49.6 67.1996 39.1682 67.1996 26.3C67.1996 13.4318 60.1257 3 51.3996 3C42.6735 3 35.5996 13.4318 35.5996 26.3C35.5996 39.1682 42.6735 49.6 51.3996 49.6Z" fill="#FBFBFB" stroke="black" stroke-width="6" stroke-miterlimit="10"/>
<path d="M2.19922 23.4001C2.19922 23.4001 20.6992 29.0001 32.1992 20.1001L2.19922 23.4001Z" fill="#FBFBFB"/>
<path d="M2.19922 23.4001C2.19922 23.4001 20.6992 29.0001 32.1992 20.1001" stroke="black" stroke-width="6" stroke-miterlimit="10"/>
<path d="M36.6992 20.1999C36.6992 20.1999 55.1992 25.7999 66.6992 16.8999L36.6992 20.1999Z" fill="#FBFBFB"/>
<path d="M36.6992 20.1999C36.6992 20.1999 55.1992 25.7999 66.6992 16.8999" stroke="black" stroke-width="6" stroke-miterlimit="10"/>
<path d="M17.2429 53.1332C22.7568 52.2904 26.2661 45.3227 25.0811 37.5704C23.8961 29.8182 18.4656 24.217 12.9516 25.0598C7.4377 25.9027 3.9284 32.8704 5.11339 40.6226C6.29839 48.3749 11.7289 53.9761 17.2429 53.1332Z" fill="black"/>
<path d="M49.8415 49.9325C55.3554 49.0897 58.8647 42.122 57.6797 34.3697C56.4947 26.6175 51.0642 21.0163 45.5503 21.8591C40.0363 22.702 36.527 29.6697 37.712 37.422C38.897 45.1742 44.3276 50.7754 49.8415 49.9325Z" fill="black"/>
<path d="M8.39941 63.8999C8.39941 63.8999 13.4994 63.8999 15.0994 58.4999C15.0994 58.4999 21.7994 68.3999 39.5994 67.5999C51.1994 65.8999 58.2994 63.2999 62.3994 53.3999C62.3994 53.3999 65.8994 58.1999 70.3994 57.5999" stroke="black" stroke-width="5" stroke-miterlimit="10" stroke-linecap="round" stroke-linejoin="round"/>
</g>
<defs>
<clipPath id="clip0_106_1611">
<rect width="72.9" height="70.1" fill="white"/>
</clipPath>
</defs>
</svg>
