<svg width="31" height="22" viewBox="0 0 31 22" fill="none" xmlns="http://www.w3.org/2000/svg">
<path fill-rule="evenodd" clip-rule="evenodd" d="M0.000976562 1.5C0.000976562 0.671573 0.672549 0 1.50098 0H28.5973C29.4257 0 30.0973 0.671573 30.0973 1.5C30.0973 2.32843 29.4257 3 28.5973 3H1.50098C0.672549 3 0.000976562 2.32843 0.000976562 1.5ZM0.000976562 10.5323C0.000976562 9.70391 0.672549 9.03234 1.50098 9.03234H28.5973C29.4257 9.03234 30.0973 9.70391 30.0973 10.5323C30.0973 11.3608 29.4257 12.0323 28.5973 12.0323H1.50098C0.672549 12.0323 0.000976562 11.3608 0.000976562 10.5323ZM1.50098 18.0645C0.672549 18.0645 0.000976562 18.736 0.000976562 19.5645C0.000976562 20.3929 0.672549 21.0645 1.50098 21.0645H28.5973C29.4257 21.0645 30.0973 20.3929 30.0973 19.5645C30.0973 18.736 29.4257 18.0645 28.5973 18.0645H1.50098Z" fill="#0E0E0D"/>
</svg>
