<svg width="40" height="40" viewBox="0 0 40 40" fill="none" xmlns="http://www.w3.org/2000/svg">
<path fill-rule="evenodd" clip-rule="evenodd" d="M3 19.55C3 10.4097 10.4097 3 19.55 3C28.6902 3 36.0999 10.4097 36.0999 19.55C36.0999 24.6925 33.7545 29.2872 30.0749 32.3226V30.3793C30.0749 28.2398 29.5479 26.1151 28.5252 24.479C27.5076 22.8507 25.9444 21.6593 24.0624 21.6593H15.0375C13.1555 21.6593 11.5923 22.8507 10.5747 24.479C9.55205 26.1151 9.02497 28.2398 9.02497 30.3793V32.3226C5.34545 29.2871 3 24.6925 3 19.55ZM11.9969 34.2798C14.2613 35.4433 16.8289 36.0999 19.55 36.0999C22.271 36.0999 24.8386 35.4433 27.103 34.2798C27.0846 34.1858 27.0749 34.0887 27.0749 33.9893V30.3793C27.0749 28.6891 26.6512 27.1408 25.9813 26.069C25.3064 24.9892 24.5741 24.6593 24.0624 24.6593H15.0375C14.5258 24.6593 13.7935 24.9892 13.1186 26.069C12.4487 27.1408 12.025 28.6891 12.025 30.3793V33.9893C12.025 34.0887 12.0153 34.1858 11.9969 34.2798ZM19.55 0C8.75281 0 0 8.75281 0 19.55C0 30.3471 8.75281 39.0999 19.55 39.0999C30.3471 39.0999 39.0999 30.3471 39.0999 19.55C39.0999 8.75281 30.3471 0 19.55 0ZM19.5499 10.22C17.3878 10.22 15.635 11.9728 15.635 14.135C15.635 16.2972 17.3878 18.05 19.5499 18.05C21.7121 18.05 23.4649 16.2972 23.4649 14.135C23.4649 11.9728 21.7121 10.22 19.5499 10.22ZM12.635 14.135C12.635 10.3159 15.7309 7.21998 19.5499 7.21998C23.369 7.21998 26.4649 10.3159 26.4649 14.135C26.4649 17.954 23.369 21.05 19.5499 21.05C15.7309 21.05 12.635 17.954 12.635 14.135Z" fill="#0E0E0D"/>
</svg>
