<?xml version="1.0" encoding="utf-8"?>
<!-- Generator: Adobe Illustrator 21.1.0, SVG Export Plug-In . SVG Version: 6.00 Build 0)  -->
<svg version="1.1" id="圖層_1" xmlns="http://www.w3.org/2000/svg" xmlns:xlink="http://www.w3.org/1999/xlink" x="0px" y="0px"
	 viewBox="0 0 59 42" style="enable-background:new 0 0 59 42;" xml:space="preserve">
<style type="text/css">
	.st0{fill:#9C9C9C;}
</style>
<path class="st0" d="M43.8,17.6C43.8,17.6,43.8,17.6,43.8,17.6c-0.3-3.8-2.2-7.4-5.2-10c-3-2.6-6.9-3.9-10.9-3.8
	c-4,0.1-7.8,1.8-10.6,4.6c-2.8,2.8-4.3,6.5-4.3,10.4c0,1.2,0.2,2.3,0.4,3.5c-0.2,0-0.3,0-0.4,0c-2.5,0-5,1-6.8,2.7
	c-1.8,1.7-2.8,4.1-2.8,6.5c0,2.8,1.3,5.2,3.3,6.9h44.4c2.9-2.1,4.8-5.4,4.8-9.2c0-1.5-0.3-3-0.9-4.4S53.4,22,52.3,21
	c-1.1-1.1-2.4-1.9-3.9-2.5S45.4,17.6,43.8,17.6z M31.9,26.8v6.9h-4.8v-6.9H20l9.5-11.5l9.5,11.5H31.9z"/>
</svg>
